solid CATIA STL
  facet normal  0.000000e+000  0.000000e+000  1.000000e+000
    outer loop
      vertex -4.635255e+000  1.426585e+001  0.000000e+000
      vertex  4.635255e+000  1.426585e+001  0.000000e+000
      vertex  4.249154e-015  1.500000e+001  0.000000e+000
    endloop
  endfacet
  facet normal  -0.000000e+000  0.000000e+000  9.999999e-001
    outer loop
      vertex  4.635255e+000  1.426585e+001  0.000000e+000
      vertex -4.635255e+000  1.426585e+001  0.000000e+000
      vertex  8.816779e+000  1.213525e+001  0.000000e+000
    endloop
  endfacet
  facet normal  0.000000e+000  0.000000e+000  1.000000e+000
    outer loop
      vertex  8.816779e+000  1.213525e+001  0.000000e+000
      vertex -4.635255e+000  1.426585e+001  0.000000e+000
      vertex -8.816779e+000  1.213525e+001  0.000000e+000
    endloop
  endfacet
  facet normal  -0.000000e+000  0.000000e+000  1.000000e+000
    outer loop
      vertex  8.816779e+000  1.213525e+001  0.000000e+000
      vertex -8.816779e+000  1.213525e+001  0.000000e+000
      vertex  1.213525e+001  8.816779e+000  0.000000e+000
    endloop
  endfacet
  facet normal  0.000000e+000  0.000000e+000  1.000000e+000
    outer loop
      vertex  1.213525e+001  8.816779e+000  0.000000e+000
      vertex -8.816779e+000  1.213525e+001  0.000000e+000
      vertex -1.213525e+001  8.816779e+000  0.000000e+000
    endloop
  endfacet
  facet normal  -0.000000e+000  0.000000e+000  1.000000e+000
    outer loop
      vertex  1.213525e+001  8.816779e+000  0.000000e+000
      vertex -1.213525e+001  8.816779e+000  0.000000e+000
      vertex  1.426585e+001  4.635255e+000  0.000000e+000
    endloop
  endfacet
  facet normal  0.000000e+000  0.000000e+000  1.000000e+000
    outer loop
      vertex  1.426585e+001  4.635255e+000  0.000000e+000
      vertex -1.213525e+001  8.816779e+000  0.000000e+000
      vertex -1.426585e+001  4.635255e+000  0.000000e+000
    endloop
  endfacet
  facet normal  -0.000000e+000  0.000000e+000  1.000000e+000
    outer loop
      vertex  1.426585e+001  4.635255e+000  0.000000e+000
      vertex -1.426585e+001  4.635255e+000  0.000000e+000
      vertex  1.500000e+001  0.000000e+000  0.000000e+000
    endloop
  endfacet
  facet normal  0.000000e+000  0.000000e+000  1.000000e+000
    outer loop
      vertex  1.500000e+001  0.000000e+000  0.000000e+000
      vertex -1.426585e+001  4.635255e+000  0.000000e+000
      vertex -1.500000e+001  8.498309e-015  0.000000e+000
    endloop
  endfacet
  facet normal  0.000000e+000  0.000000e+000  1.000000e+000
    outer loop
      vertex  1.500000e+001  0.000000e+000  0.000000e+000
      vertex -1.500000e+001  8.498309e-015  0.000000e+000
      vertex  1.426585e+001 -4.635255e+000  0.000000e+000
    endloop
  endfacet
  facet normal  0.000000e+000  0.000000e+000  1.000000e+000
    outer loop
      vertex  1.426585e+001 -4.635255e+000  0.000000e+000
      vertex -1.500000e+001  8.498309e-015  0.000000e+000
      vertex -1.426585e+001 -4.635255e+000  0.000000e+000
    endloop
  endfacet
  facet normal  -0.000000e+000  0.000000e+000  1.000000e+000
    outer loop
      vertex  1.426585e+001 -4.635255e+000  0.000000e+000
      vertex -1.426585e+001 -4.635255e+000  0.000000e+000
      vertex  1.213525e+001 -8.816779e+000  0.000000e+000
    endloop
  endfacet
  facet normal  0.000000e+000  0.000000e+000  1.000000e+000
    outer loop
      vertex  1.213525e+001 -8.816779e+000  0.000000e+000
      vertex -1.426585e+001 -4.635255e+000  0.000000e+000
      vertex -1.213525e+001 -8.816779e+000  0.000000e+000
    endloop
  endfacet
  facet normal  -0.000000e+000  0.000000e+000  1.000000e+000
    outer loop
      vertex  1.213525e+001 -8.816779e+000  0.000000e+000
      vertex -1.213525e+001 -8.816779e+000  0.000000e+000
      vertex  8.816779e+000 -1.213525e+001  0.000000e+000
    endloop
  endfacet
  facet normal  0.000000e+000  0.000000e+000  1.000000e+000
    outer loop
      vertex  8.816779e+000 -1.213525e+001  0.000000e+000
      vertex -1.213525e+001 -8.816779e+000  0.000000e+000
      vertex -8.816779e+000 -1.213525e+001  0.000000e+000
    endloop
  endfacet
  facet normal  -0.000000e+000  0.000000e+000  1.000000e+000
    outer loop
      vertex  8.816779e+000 -1.213525e+001  0.000000e+000
      vertex -8.816779e+000 -1.213525e+001  0.000000e+000
      vertex  4.635255e+000 -1.426585e+001  0.000000e+000
    endloop
  endfacet
  facet normal  0.000000e+000  0.000000e+000  9.999999e-001
    outer loop
      vertex  4.635255e+000 -1.426585e+001  0.000000e+000
      vertex -8.816779e+000 -1.213525e+001  0.000000e+000
      vertex -4.635255e+000 -1.426585e+001  0.000000e+000
    endloop
  endfacet
  facet normal  -0.000000e+000  0.000000e+000  1.000000e+000
    outer loop
      vertex  4.635255e+000 -1.426585e+001  0.000000e+000
      vertex -4.635255e+000 -1.426585e+001  0.000000e+000
      vertex -1.607813e-014 -1.500000e+001  0.000000e+000
    endloop
  endfacet
  facet normal  0.000000e+000  0.000000e+000 -1.000000e+000
    outer loop
      vertex  4.249154e-015  1.500000e+001 -1.000000e+000
      vertex  4.635255e+000  1.426585e+001 -1.000000e+000
      vertex -4.635255e+000  1.426585e+001 -1.000000e+000
    endloop
  endfacet
  facet normal  0.000000e+000  0.000000e+000 -1.000000e+000
    outer loop
      vertex -1.607813e-014 -1.500000e+001 -1.000000e+000
      vertex -4.635255e+000 -1.426585e+001 -1.000000e+000
      vertex  4.635255e+000 -1.426585e+001 -1.000000e+000
    endloop
  endfacet
  facet normal  0.000000e+000  0.000000e+000 -9.999999e-001
    outer loop
      vertex  4.635255e+000 -1.426585e+001 -1.000000e+000
      vertex -4.635255e+000 -1.426585e+001 -1.000000e+000
      vertex -8.816779e+000 -1.213525e+001 -1.000000e+000
    endloop
  endfacet
  facet normal  0.000000e+000  0.000000e+000 -1.000000e+000
    outer loop
      vertex  4.635255e+000 -1.426585e+001 -1.000000e+000
      vertex -8.816779e+000 -1.213525e+001 -1.000000e+000
      vertex  8.816779e+000 -1.213525e+001 -1.000000e+000
    endloop
  endfacet
  facet normal  0.000000e+000  0.000000e+000 -1.000000e+000
    outer loop
      vertex  8.816779e+000 -1.213525e+001 -1.000000e+000
      vertex -8.816779e+000 -1.213525e+001 -1.000000e+000
      vertex -1.213525e+001 -8.816779e+000 -1.000000e+000
    endloop
  endfacet
  facet normal  0.000000e+000  0.000000e+000 -1.000000e+000
    outer loop
      vertex  8.816779e+000 -1.213525e+001 -1.000000e+000
      vertex -1.213525e+001 -8.816779e+000 -1.000000e+000
      vertex  1.213525e+001 -8.816779e+000 -1.000000e+000
    endloop
  endfacet
  facet normal  0.000000e+000  0.000000e+000 -1.000000e+000
    outer loop
      vertex  1.213525e+001 -8.816779e+000 -1.000000e+000
      vertex -1.213525e+001 -8.816779e+000 -1.000000e+000
      vertex -1.426585e+001 -4.635255e+000 -1.000000e+000
    endloop
  endfacet
  facet normal  0.000000e+000  0.000000e+000 -1.000000e+000
    outer loop
      vertex  1.213525e+001 -8.816779e+000 -1.000000e+000
      vertex -1.426585e+001 -4.635255e+000 -1.000000e+000
      vertex  1.426585e+001 -4.635255e+000 -1.000000e+000
    endloop
  endfacet
  facet normal  0.000000e+000  0.000000e+000 -1.000000e+000
    outer loop
      vertex  1.426585e+001 -4.635255e+000 -1.000000e+000
      vertex -1.426585e+001 -4.635255e+000 -1.000000e+000
      vertex -1.500000e+001  8.498309e-015 -1.000000e+000
    endloop
  endfacet
  facet normal  0.000000e+000  0.000000e+000 -1.000000e+000
    outer loop
      vertex  1.426585e+001 -4.635255e+000 -1.000000e+000
      vertex -1.500000e+001  8.498309e-015 -1.000000e+000
      vertex  1.500000e+001  0.000000e+000 -1.000000e+000
    endloop
  endfacet
  facet normal  0.000000e+000  0.000000e+000 -1.000000e+000
    outer loop
      vertex  1.500000e+001  0.000000e+000 -1.000000e+000
      vertex -1.500000e+001  8.498309e-015 -1.000000e+000
      vertex -1.426585e+001  4.635255e+000 -1.000000e+000
    endloop
  endfacet
  facet normal  0.000000e+000  0.000000e+000 -1.000000e+000
    outer loop
      vertex  1.500000e+001  0.000000e+000 -1.000000e+000
      vertex -1.426585e+001  4.635255e+000 -1.000000e+000
      vertex  1.426585e+001  4.635255e+000 -1.000000e+000
    endloop
  endfacet
  facet normal  0.000000e+000  0.000000e+000 -1.000000e+000
    outer loop
      vertex  1.426585e+001  4.635255e+000 -1.000000e+000
      vertex -1.426585e+001  4.635255e+000 -1.000000e+000
      vertex -1.213525e+001  8.816779e+000 -1.000000e+000
    endloop
  endfacet
  facet normal  0.000000e+000  0.000000e+000 -1.000000e+000
    outer loop
      vertex  1.426585e+001  4.635255e+000 -1.000000e+000
      vertex -1.213525e+001  8.816779e+000 -1.000000e+000
      vertex  1.213525e+001  8.816779e+000 -1.000000e+000
    endloop
  endfacet
  facet normal  0.000000e+000  0.000000e+000 -1.000000e+000
    outer loop
      vertex  1.213525e+001  8.816779e+000 -1.000000e+000
      vertex -1.213525e+001  8.816779e+000 -1.000000e+000
      vertex -8.816779e+000  1.213525e+001 -1.000000e+000
    endloop
  endfacet
  facet normal  0.000000e+000  0.000000e+000 -1.000000e+000
    outer loop
      vertex  1.213525e+001  8.816779e+000 -1.000000e+000
      vertex -8.816779e+000  1.213525e+001 -1.000000e+000
      vertex  8.816779e+000  1.213525e+001 -1.000000e+000
    endloop
  endfacet
  facet normal  0.000000e+000  0.000000e+000 -1.000000e+000
    outer loop
      vertex  8.816779e+000  1.213525e+001 -1.000000e+000
      vertex -8.816779e+000  1.213525e+001 -1.000000e+000
      vertex -4.635255e+000  1.426585e+001 -1.000000e+000
    endloop
  endfacet
  facet normal  0.000000e+000  0.000000e+000 -9.999999e-001
    outer loop
      vertex  8.816779e+000  1.213525e+001 -1.000000e+000
      vertex -4.635255e+000  1.426585e+001 -1.000000e+000
      vertex  4.635255e+000  1.426585e+001 -1.000000e+000
    endloop
  endfacet
  facet normal  9.876884e-001 -1.564344e-001  0.000000e+000
    outer loop
      vertex  1.500000e+001  0.000000e+000 -1.000000e+000
      vertex  1.500000e+001  0.000000e+000  0.000000e+000
      vertex  1.426585e+001 -4.635255e+000 -1.000000e+000
    endloop
  endfacet
  facet normal  9.876884e-001 -1.564344e-001  0.000000e+000
    outer loop
      vertex  1.426585e+001 -4.635255e+000 -1.000000e+000
      vertex  1.500000e+001  0.000000e+000  0.000000e+000
      vertex  1.426585e+001 -4.635255e+000  0.000000e+000
    endloop
  endfacet
  facet normal  8.910065e-001 -4.539905e-001  0.000000e+000
    outer loop
      vertex  1.426585e+001 -4.635255e+000 -1.000000e+000
      vertex  1.426585e+001 -4.635255e+000  0.000000e+000
      vertex  1.213525e+001 -8.816779e+000 -1.000000e+000
    endloop
  endfacet
  facet normal  8.910065e-001 -4.539905e-001  0.000000e+000
    outer loop
      vertex  1.213525e+001 -8.816779e+000 -1.000000e+000
      vertex  1.426585e+001 -4.635255e+000  0.000000e+000
      vertex  1.213525e+001 -8.816779e+000  0.000000e+000
    endloop
  endfacet
  facet normal  7.071068e-001 -7.071068e-001  0.000000e+000
    outer loop
      vertex  1.213525e+001 -8.816779e+000 -1.000000e+000
      vertex  1.213525e+001 -8.816779e+000  0.000000e+000
      vertex  8.816779e+000 -1.213525e+001 -1.000000e+000
    endloop
  endfacet
  facet normal  7.071068e-001 -7.071068e-001  0.000000e+000
    outer loop
      vertex  8.816779e+000 -1.213525e+001 -1.000000e+000
      vertex  1.213525e+001 -8.816779e+000  0.000000e+000
      vertex  8.816779e+000 -1.213525e+001  0.000000e+000
    endloop
  endfacet
  facet normal  4.539905e-001 -8.910065e-001  0.000000e+000
    outer loop
      vertex  8.816779e+000 -1.213525e+001 -1.000000e+000
      vertex  8.816779e+000 -1.213525e+001  0.000000e+000
      vertex  4.635255e+000 -1.426585e+001 -1.000000e+000
    endloop
  endfacet
  facet normal  4.539905e-001 -8.910065e-001  0.000000e+000
    outer loop
      vertex  4.635255e+000 -1.426585e+001 -1.000000e+000
      vertex  8.816779e+000 -1.213525e+001  0.000000e+000
      vertex  4.635255e+000 -1.426585e+001  0.000000e+000
    endloop
  endfacet
  facet normal  1.564344e-001 -9.876884e-001  0.000000e+000
    outer loop
      vertex  4.635255e+000 -1.426585e+001 -1.000000e+000
      vertex  4.635255e+000 -1.426585e+001  0.000000e+000
      vertex -1.607813e-014 -1.500000e+001 -1.000000e+000
    endloop
  endfacet
  facet normal  1.564344e-001 -9.876884e-001  0.000000e+000
    outer loop
      vertex -1.607813e-014 -1.500000e+001 -1.000000e+000
      vertex  4.635255e+000 -1.426585e+001  0.000000e+000
      vertex -1.607813e-014 -1.500000e+001  0.000000e+000
    endloop
  endfacet
  facet normal -1.564344e-001 -9.876884e-001  -0.000000e+000
    outer loop
      vertex -1.607813e-014 -1.500000e+001 -1.000000e+000
      vertex -1.607813e-014 -1.500000e+001  0.000000e+000
      vertex -4.635255e+000 -1.426585e+001 -1.000000e+000
    endloop
  endfacet
  facet normal -1.564344e-001 -9.876884e-001  0.000000e+000
    outer loop
      vertex -4.635255e+000 -1.426585e+001 -1.000000e+000
      vertex -1.607813e-014 -1.500000e+001  0.000000e+000
      vertex -4.635255e+000 -1.426585e+001  0.000000e+000
    endloop
  endfacet
  facet normal -4.539905e-001 -8.910065e-001  -0.000000e+000
    outer loop
      vertex -4.635255e+000 -1.426585e+001 -1.000000e+000
      vertex -4.635255e+000 -1.426585e+001  0.000000e+000
      vertex -8.816779e+000 -1.213525e+001 -1.000000e+000
    endloop
  endfacet
  facet normal -4.539905e-001 -8.910065e-001  0.000000e+000
    outer loop
      vertex -8.816779e+000 -1.213525e+001 -1.000000e+000
      vertex -4.635255e+000 -1.426585e+001  0.000000e+000
      vertex -8.816779e+000 -1.213525e+001  0.000000e+000
    endloop
  endfacet
  facet normal -7.071068e-001 -7.071068e-001  -0.000000e+000
    outer loop
      vertex -8.816779e+000 -1.213525e+001 -1.000000e+000
      vertex -8.816779e+000 -1.213525e+001  0.000000e+000
      vertex -1.213525e+001 -8.816779e+000 -1.000000e+000
    endloop
  endfacet
  facet normal -7.071068e-001 -7.071068e-001  0.000000e+000
    outer loop
      vertex -1.213525e+001 -8.816779e+000 -1.000000e+000
      vertex -8.816779e+000 -1.213525e+001  0.000000e+000
      vertex -1.213525e+001 -8.816779e+000  0.000000e+000
    endloop
  endfacet
  facet normal -8.910065e-001 -4.539905e-001  -0.000000e+000
    outer loop
      vertex -1.213525e+001 -8.816779e+000 -1.000000e+000
      vertex -1.213525e+001 -8.816779e+000  0.000000e+000
      vertex -1.426585e+001 -4.635255e+000 -1.000000e+000
    endloop
  endfacet
  facet normal -8.910065e-001 -4.539905e-001  0.000000e+000
    outer loop
      vertex -1.426585e+001 -4.635255e+000 -1.000000e+000
      vertex -1.213525e+001 -8.816779e+000  0.000000e+000
      vertex -1.426585e+001 -4.635255e+000  0.000000e+000
    endloop
  endfacet
  facet normal -9.876884e-001 -1.564344e-001  -0.000000e+000
    outer loop
      vertex -1.426585e+001 -4.635255e+000 -1.000000e+000
      vertex -1.426585e+001 -4.635255e+000  0.000000e+000
      vertex -1.500000e+001  8.498309e-015 -1.000000e+000
    endloop
  endfacet
  facet normal -9.876884e-001 -1.564344e-001  0.000000e+000
    outer loop
      vertex -1.500000e+001  8.498309e-015 -1.000000e+000
      vertex -1.426585e+001 -4.635255e+000  0.000000e+000
      vertex -1.500000e+001  8.498309e-015  0.000000e+000
    endloop
  endfacet
  facet normal -9.876884e-001  1.564344e-001  0.000000e+000
    outer loop
      vertex -1.500000e+001  8.498309e-015 -1.000000e+000
      vertex -1.500000e+001  8.498309e-015  0.000000e+000
      vertex -1.426585e+001  4.635255e+000 -1.000000e+000
    endloop
  endfacet
  facet normal -9.876884e-001  1.564344e-001  0.000000e+000
    outer loop
      vertex -1.426585e+001  4.635255e+000 -1.000000e+000
      vertex -1.500000e+001  8.498309e-015  0.000000e+000
      vertex -1.426585e+001  4.635255e+000  0.000000e+000
    endloop
  endfacet
  facet normal -8.910065e-001  4.539905e-001  0.000000e+000
    outer loop
      vertex -1.426585e+001  4.635255e+000 -1.000000e+000
      vertex -1.426585e+001  4.635255e+000  0.000000e+000
      vertex -1.213525e+001  8.816779e+000 -1.000000e+000
    endloop
  endfacet
  facet normal -8.910065e-001  4.539905e-001  0.000000e+000
    outer loop
      vertex -1.213525e+001  8.816779e+000 -1.000000e+000
      vertex -1.426585e+001  4.635255e+000  0.000000e+000
      vertex -1.213525e+001  8.816779e+000  0.000000e+000
    endloop
  endfacet
  facet normal -7.071068e-001  7.071068e-001  0.000000e+000
    outer loop
      vertex -1.213525e+001  8.816779e+000 -1.000000e+000
      vertex -1.213525e+001  8.816779e+000  0.000000e+000
      vertex -8.816779e+000  1.213525e+001 -1.000000e+000
    endloop
  endfacet
  facet normal -7.071068e-001  7.071068e-001  0.000000e+000
    outer loop
      vertex -8.816779e+000  1.213525e+001 -1.000000e+000
      vertex -1.213525e+001  8.816779e+000  0.000000e+000
      vertex -8.816779e+000  1.213525e+001  0.000000e+000
    endloop
  endfacet
  facet normal -4.539905e-001  8.910065e-001  0.000000e+000
    outer loop
      vertex -8.816779e+000  1.213525e+001 -1.000000e+000
      vertex -8.816779e+000  1.213525e+001  0.000000e+000
      vertex -4.635255e+000  1.426585e+001 -1.000000e+000
    endloop
  endfacet
  facet normal -4.539905e-001  8.910065e-001  0.000000e+000
    outer loop
      vertex -4.635255e+000  1.426585e+001 -1.000000e+000
      vertex -8.816779e+000  1.213525e+001  0.000000e+000
      vertex -4.635255e+000  1.426585e+001  0.000000e+000
    endloop
  endfacet
  facet normal -1.564344e-001  9.876884e-001  0.000000e+000
    outer loop
      vertex -4.635255e+000  1.426585e+001 -1.000000e+000
      vertex -4.635255e+000  1.426585e+001  0.000000e+000
      vertex  4.249154e-015  1.500000e+001 -1.000000e+000
    endloop
  endfacet
  facet normal -1.564344e-001  9.876884e-001  0.000000e+000
    outer loop
      vertex  4.249154e-015  1.500000e+001 -1.000000e+000
      vertex -4.635255e+000  1.426585e+001  0.000000e+000
      vertex  4.249154e-015  1.500000e+001  0.000000e+000
    endloop
  endfacet
  facet normal  1.564344e-001  9.876884e-001  0.000000e+000
    outer loop
      vertex  4.249154e-015  1.500000e+001 -1.000000e+000
      vertex  4.249154e-015  1.500000e+001  0.000000e+000
      vertex  4.635255e+000  1.426585e+001 -1.000000e+000
    endloop
  endfacet
  facet normal  1.564344e-001  9.876884e-001  -0.000000e+000
    outer loop
      vertex  4.635255e+000  1.426585e+001 -1.000000e+000
      vertex  4.249154e-015  1.500000e+001  0.000000e+000
      vertex  4.635255e+000  1.426585e+001  0.000000e+000
    endloop
  endfacet
  facet normal  4.539905e-001  8.910065e-001  0.000000e+000
    outer loop
      vertex  4.635255e+000  1.426585e+001 -1.000000e+000
      vertex  4.635255e+000  1.426585e+001  0.000000e+000
      vertex  8.816779e+000  1.213525e+001 -1.000000e+000
    endloop
  endfacet
  facet normal  4.539905e-001  8.910065e-001  -0.000000e+000
    outer loop
      vertex  8.816779e+000  1.213525e+001 -1.000000e+000
      vertex  4.635255e+000  1.426585e+001  0.000000e+000
      vertex  8.816779e+000  1.213525e+001  0.000000e+000
    endloop
  endfacet
  facet normal  7.071068e-001  7.071068e-001  0.000000e+000
    outer loop
      vertex  8.816779e+000  1.213525e+001 -1.000000e+000
      vertex  8.816779e+000  1.213525e+001  0.000000e+000
      vertex  1.213525e+001  8.816779e+000 -1.000000e+000
    endloop
  endfacet
  facet normal  7.071068e-001  7.071068e-001  -0.000000e+000
    outer loop
      vertex  1.213525e+001  8.816779e+000 -1.000000e+000
      vertex  8.816779e+000  1.213525e+001  0.000000e+000
      vertex  1.213525e+001  8.816779e+000  0.000000e+000
    endloop
  endfacet
  facet normal  8.910065e-001  4.539905e-001  0.000000e+000
    outer loop
      vertex  1.213525e+001  8.816779e+000 -1.000000e+000
      vertex  1.213525e+001  8.816779e+000  0.000000e+000
      vertex  1.426585e+001  4.635255e+000 -1.000000e+000
    endloop
  endfacet
  facet normal  8.910065e-001  4.539905e-001  -0.000000e+000
    outer loop
      vertex  1.426585e+001  4.635255e+000 -1.000000e+000
      vertex  1.213525e+001  8.816779e+000  0.000000e+000
      vertex  1.426585e+001  4.635255e+000  0.000000e+000
    endloop
  endfacet
  facet normal  9.876884e-001  1.564344e-001  0.000000e+000
    outer loop
      vertex  1.426585e+001  4.635255e+000 -1.000000e+000
      vertex  1.426585e+001  4.635255e+000  0.000000e+000
      vertex  1.500000e+001  0.000000e+000 -1.000000e+000
    endloop
  endfacet
  facet normal  9.876884e-001  1.564344e-001  -0.000000e+000
    outer loop
      vertex  1.500000e+001  0.000000e+000 -1.000000e+000
      vertex  1.426585e+001  4.635255e+000  0.000000e+000
      vertex  1.500000e+001  0.000000e+000  0.000000e+000
    endloop
  endfacet
endsolid CATIA STL
