solid Exported from Blender-2.77 (sub 0)
facet normal 0.000000 0.000000 1.000000
outer loop
vertex 11.000000 0.000000 2.000000
vertex 10.995100 0.329070 2.000000
vertex 0.000000 0.000000 2.000000
endloop
endfacet
facet normal 0.000000 0.000000 1.000000
outer loop
vertex 10.877100 -1.639460 2.000000
vertex 10.955700 -0.986032 2.000000
vertex 0.000000 0.000000 2.000000
endloop
endfacet
facet normal -0.000000 0.000000 1.000000
outer loop
vertex 10.955700 -0.986032 2.000000
vertex 10.995100 -0.329070 2.000000
vertex 0.000000 0.000000 2.000000
endloop
endfacet
facet normal 0.000000 0.000000 1.000000
outer loop
vertex 0.000000 0.000000 2.000000
vertex 10.995100 -0.329070 2.000000
vertex 11.000000 0.000000 2.000000
endloop
endfacet
facet normal 0.000000 0.000000 1.000000
outer loop
vertex 10.409600 -3.555310 2.000000
vertex 10.603600 -2.926410 2.000000
vertex 0.000000 0.000000 2.000000
endloop
endfacet
facet normal 0.000000 0.000000 1.000000
outer loop
vertex 10.603600 -2.926410 2.000000
vertex 10.759600 -2.287030 2.000000
vertex 0.000000 0.000000 2.000000
endloop
endfacet
facet normal 0.000000 0.000000 1.000000
outer loop
vertex 0.000000 0.000000 2.000000
vertex 10.759600 -2.287030 2.000000
vertex 10.877100 -1.639460 2.000000
endloop
endfacet
facet normal 0.000000 0.000000 1.000000
outer loop
vertex 9.607490 -5.356880 2.000000
vertex 9.910660 -4.772720 2.000000
vertex 0.000000 0.000000 2.000000
endloop
endfacet
facet normal 0.000000 0.000000 1.000000
outer loop
vertex 9.910660 -4.772720 2.000000
vertex 10.178300 -4.171480 2.000000
vertex 0.000000 0.000000 2.000000
endloop
endfacet
facet normal 0.000000 0.000000 1.000000
outer loop
vertex 0.000000 0.000000 2.000000
vertex 10.178300 -4.171480 2.000000
vertex 10.409600 -3.555310 2.000000
endloop
endfacet
facet normal 0.000000 0.000000 1.000000
outer loop
vertex 8.496590 -6.986270 2.000000
vertex 8.899190 -6.465640 2.000000
vertex 0.000000 0.000000 2.000000
endloop
endfacet
facet normal 0.000000 0.000000 1.000000
outer loop
vertex 8.899190 -6.465640 2.000000
vertex 9.269930 -5.921860 2.000000
vertex 0.000000 0.000000 2.000000
endloop
endfacet
facet normal 0.000000 0.000000 1.000000
outer loop
vertex 0.000000 0.000000 2.000000
vertex 9.269930 -5.921860 2.000000
vertex 9.607490 -5.356880 2.000000
endloop
endfacet
facet normal 0.000000 0.000000 1.000000
outer loop
vertex 7.112600 -8.391130 2.000000
vertex 7.601690 -7.950740 2.000000
vertex 0.000000 0.000000 2.000000
endloop
endfacet
facet normal 0.000000 0.000000 1.000000
outer loop
vertex 7.601690 -7.950740 2.000000
vertex 8.063570 -7.481900 2.000000
vertex 0.000000 0.000000 2.000000
endloop
endfacet
facet normal 0.000000 0.000000 1.000000
outer loop
vertex 0.000000 0.000000 2.000000
vertex 8.063570 -7.481900 2.000000
vertex 8.496590 -6.986270 2.000000
endloop
endfacet
facet normal 0.000000 0.000000 1.000000
outer loop
vertex 5.500000 -9.526280 2.000000
vertex 6.059870 -9.180310 2.000000
vertex 0.000000 0.000000 2.000000
endloop
endfacet
facet normal 0.000000 0.000000 1.000000
outer loop
vertex 6.059870 -9.180310 2.000000
vertex 6.598040 -8.801470 2.000000
vertex 0.000000 0.000000 2.000000
endloop
endfacet
facet normal 0.000000 0.000000 1.000000
outer loop
vertex 0.000000 0.000000 2.000000
vertex 6.598040 -8.801470 2.000000
vertex 7.112600 -8.391130 2.000000
endloop
endfacet
facet normal 0.000000 0.000000 1.000000
outer loop
vertex 3.710630 -10.355300 2.000000
vertex 4.323280 -10.114800 2.000000
vertex 0.000000 0.000000 2.000000
endloop
endfacet
facet normal 0.000000 0.000000 1.000000
outer loop
vertex 4.323280 -10.114800 2.000000
vertex 4.920440 -9.838150 2.000000
vertex 0.000000 0.000000 2.000000
endloop
endfacet
facet normal 0.000000 0.000000 1.000000
outer loop
vertex 0.000000 0.000000 2.000000
vertex 4.920440 -9.838150 2.000000
vertex 5.500000 -9.526280 2.000000
endloop
endfacet
facet normal 0.000000 0.000000 1.000000
outer loop
vertex 1.802000 -10.851400 2.000000
vertex 2.447730 -10.724200 2.000000
vertex 0.000000 0.000000 2.000000
endloop
endfacet
facet normal 0.000000 0.000000 1.000000
outer loop
vertex 2.447730 -10.724200 2.000000
vertex 3.084700 -10.558600 2.000000
vertex 0.000000 0.000000 2.000000
endloop
endfacet
facet normal 0.000000 0.000000 1.000000
outer loop
vertex 0.000000 0.000000 2.000000
vertex 3.084700 -10.558600 2.000000
vertex 3.710630 -10.355300 2.000000
endloop
endfacet
facet normal 0.000000 0.000000 1.000000
outer loop
vertex -0.164553 -10.998800 2.000000
vertex 0.493513 -10.988900 2.000000
vertex 0.000000 0.000000 2.000000
endloop
endfacet
facet normal 0.000000 0.000000 1.000000
outer loop
vertex 0.493513 -10.988900 2.000000
vertex 1.149810 -10.939700 2.000000
vertex 0.000000 0.000000 2.000000
endloop
endfacet
facet normal 0.000000 0.000000 1.000000
outer loop
vertex 0.000000 0.000000 2.000000
vertex 1.149810 -10.939700 2.000000
vertex 1.802000 -10.851400 2.000000
endloop
endfacet
facet normal 0.000000 0.000000 1.000000
outer loop
vertex -2.125820 -10.792600 2.000000
vertex -1.476570 -10.900400 2.000000
vertex 0.000000 0.000000 2.000000
endloop
endfacet
facet normal 0.000000 0.000000 1.000000
outer loop
vertex -1.476570 -10.900400 2.000000
vertex -0.822031 -10.969200 2.000000
vertex 0.000000 0.000000 2.000000
endloop
endfacet
facet normal 0.000000 0.000000 1.000000
outer loop
vertex 0.000000 0.000000 2.000000
vertex -0.822031 -10.969200 2.000000
vertex -0.164553 -10.998800 2.000000
endloop
endfacet
facet normal 0.000000 0.000000 1.000000
outer loop
vertex -4.018750 -10.239600 2.000000
vertex -3.399190 -10.461600 2.000000
vertex 0.000000 0.000000 2.000000
endloop
endfacet
facet normal 0.000000 0.000000 1.000000
outer loop
vertex -3.399190 -10.461600 2.000000
vertex -2.767450 -10.646200 2.000000
vertex 0.000000 0.000000 2.000000
endloop
endfacet
facet normal 0.000000 0.000000 1.000000
outer loop
vertex 0.000000 0.000000 2.000000
vertex -2.767450 -10.646200 2.000000
vertex -2.125820 -10.792600 2.000000
endloop
endfacet
facet normal 0.000000 0.000000 1.000000
outer loop
vertex -5.782520 -9.357480 2.000000
vertex -5.212560 -9.686550 2.000000
vertex 0.000000 0.000000 2.000000
endloop
endfacet
facet normal 0.000000 0.000000 1.000000
outer loop
vertex -5.212560 -9.686550 2.000000
vertex -4.623930 -9.980950 2.000000
vertex 0.000000 0.000000 2.000000
endloop
endfacet
facet normal 0.000000 0.000000 1.000000
outer loop
vertex 0.000000 0.000000 2.000000
vertex -4.623930 -9.980950 2.000000
vertex -4.018750 -10.239600 2.000000
endloop
endfacet
facet normal 0.000000 0.000000 1.000000
outer loop
vertex -7.360440 -8.174590 2.000000
vertex -6.858390 -8.600150 2.000000
vertex 0.000000 0.000000 2.000000
endloop
endfacet
facet normal 0.000000 0.000000 1.000000
outer loop
vertex -6.858390 -8.600150 2.000000
vertex -6.331790 -8.994910 2.000000
vertex 0.000000 0.000000 2.000000
endloop
endfacet
facet normal 0.000000 0.000000 1.000000
outer loop
vertex 0.000000 0.000000 2.000000
vertex -6.331790 -8.994910 2.000000
vertex -5.782520 -9.357480 2.000000
endloop
endfacet
facet normal 0.000000 0.000000 1.000000
outer loop
vertex -8.701780 -6.728970 2.000000
vertex -8.283790 -7.237330 2.000000
vertex 0.000000 0.000000 2.000000
endloop
endfacet
facet normal 0.000000 0.000000 1.000000
outer loop
vertex -8.283790 -7.237330 2.000000
vertex -7.836140 -7.719780 2.000000
vertex 0.000000 0.000000 2.000000
endloop
endfacet
facet normal 0.000000 0.000000 1.000000
outer loop
vertex 0.000000 0.000000 2.000000
vertex -7.836140 -7.719780 2.000000
vertex -7.360440 -8.174590 2.000000
endloop
endfacet
facet normal 0.000000 0.000000 1.000000
outer loop
vertex -9.763440 -5.067070 2.000000
vertex -9.442940 -5.641890 2.000000
vertex 0.000000 0.000000 2.000000
endloop
endfacet
facet normal 0.000000 0.000000 1.000000
outer loop
vertex -9.442940 -5.641890 2.000000
vertex -9.088630 -6.196520 2.000000
vertex 0.000000 0.000000 2.000000
endloop
endfacet
facet normal 0.000000 0.000000 1.000000
outer loop
vertex 0.000000 0.000000 2.000000
vertex -9.088630 -6.196520 2.000000
vertex -8.701780 -6.728970 2.000000
endloop
endfacet
facet normal 0.000000 0.000000 1.000000
outer loop
vertex -10.511300 -3.242310 2.000000
vertex -10.298600 -3.865120 2.000000
vertex 0.000000 0.000000 2.000000
endloop
endfacet
facet normal 0.000000 0.000000 1.000000
outer loop
vertex -10.298600 -3.865120 2.000000
vertex -10.049000 -4.474100 2.000000
vertex 0.000000 0.000000 2.000000
endloop
endfacet
facet normal 0.000000 0.000000 1.000000
outer loop
vertex 0.000000 0.000000 2.000000
vertex -10.049000 -4.474100 2.000000
vertex -9.763440 -5.067070 2.000000
endloop
endfacet
facet normal 0.000000 0.000000 1.000000
outer loop
vertex -10.921300 -1.313340 2.000000
vertex -10.823200 -1.964130 2.000000
vertex 0.000000 0.000000 2.000000
endloop
endfacet
facet normal 0.000000 0.000000 1.000000
outer loop
vertex -10.823200 -1.964130 2.000000
vertex -10.686400 -2.607880 2.000000
vertex 0.000000 0.000000 2.000000
endloop
endfacet
facet normal 0.000000 0.000000 1.000000
outer loop
vertex 0.000000 0.000000 2.000000
vertex -10.686400 -2.607880 2.000000
vertex -10.511300 -3.242310 2.000000
endloop
endfacet
facet normal 0.000000 0.000000 1.000000
outer loop
vertex -10.980300 0.657846 2.000000
vertex -11.000000 0.000000 2.000000
vertex 0.000000 0.000000 2.000000
endloop
endfacet
facet normal 0.000000 0.000000 1.000000
outer loop
vertex -11.000000 0.000000 2.000000
vertex -10.980300 -0.657846 2.000000
vertex 0.000000 0.000000 2.000000
endloop
endfacet
facet normal 0.000000 0.000000 1.000000
outer loop
vertex 0.000000 0.000000 2.000000
vertex -10.980300 -0.657846 2.000000
vertex -10.921300 -1.313340 2.000000
endloop
endfacet
facet normal 0.000000 0.000000 1.000000
outer loop
vertex -10.686400 2.607880 2.000000
vertex -10.823200 1.964130 2.000000
vertex 0.000000 0.000000 2.000000
endloop
endfacet
facet normal 0.000000 0.000000 1.000000
outer loop
vertex -10.823200 1.964130 2.000000
vertex -10.921300 1.313340 2.000000
vertex 0.000000 0.000000 2.000000
endloop
endfacet
facet normal 0.000000 0.000000 1.000000
outer loop
vertex 0.000000 0.000000 2.000000
vertex -10.921300 1.313340 2.000000
vertex -10.980300 0.657846 2.000000
endloop
endfacet
facet normal 0.000000 0.000000 1.000000
outer loop
vertex -10.049000 4.474100 2.000000
vertex -10.298600 3.865120 2.000000
vertex 0.000000 0.000000 2.000000
endloop
endfacet
facet normal 0.000000 0.000000 1.000000
outer loop
vertex -10.298600 3.865120 2.000000
vertex -10.511300 3.242310 2.000000
vertex 0.000000 0.000000 2.000000
endloop
endfacet
facet normal 0.000000 0.000000 1.000000
outer loop
vertex 0.000000 0.000000 2.000000
vertex -10.511300 3.242310 2.000000
vertex -10.686400 2.607880 2.000000
endloop
endfacet
facet normal 0.000000 0.000000 1.000000
outer loop
vertex -9.088630 6.196520 2.000000
vertex -9.442940 5.641890 2.000000
vertex 0.000000 0.000000 2.000000
endloop
endfacet
facet normal 0.000000 0.000000 1.000000
outer loop
vertex -9.442940 5.641890 2.000000
vertex -9.763440 5.067070 2.000000
vertex 0.000000 0.000000 2.000000
endloop
endfacet
facet normal 0.000000 0.000000 1.000000
outer loop
vertex 0.000000 0.000000 2.000000
vertex -9.763440 5.067070 2.000000
vertex -10.049000 4.474100 2.000000
endloop
endfacet
facet normal 0.000000 0.000000 1.000000
outer loop
vertex -7.836140 7.719780 2.000000
vertex -8.283790 7.237330 2.000000
vertex 0.000000 0.000000 2.000000
endloop
endfacet
facet normal 0.000000 0.000000 1.000000
outer loop
vertex -8.283790 7.237330 2.000000
vertex -8.701780 6.728970 2.000000
vertex 0.000000 0.000000 2.000000
endloop
endfacet
facet normal 0.000000 0.000000 1.000000
outer loop
vertex 0.000000 0.000000 2.000000
vertex -8.701780 6.728970 2.000000
vertex -9.088630 6.196520 2.000000
endloop
endfacet
facet normal 0.000000 0.000000 1.000000
outer loop
vertex -6.331790 8.994910 2.000000
vertex -6.858390 8.600150 2.000000
vertex 0.000000 0.000000 2.000000
endloop
endfacet
facet normal 0.000000 0.000000 1.000000
outer loop
vertex -6.858390 8.600150 2.000000
vertex -7.360440 8.174590 2.000000
vertex 0.000000 0.000000 2.000000
endloop
endfacet
facet normal 0.000000 0.000000 1.000000
outer loop
vertex 0.000000 0.000000 2.000000
vertex -7.360440 8.174590 2.000000
vertex -7.836140 7.719780 2.000000
endloop
endfacet
facet normal 0.000000 0.000000 1.000000
outer loop
vertex -4.623930 9.980950 2.000000
vertex -5.212560 9.686550 2.000000
vertex 0.000000 0.000000 2.000000
endloop
endfacet
facet normal 0.000000 0.000000 1.000000
outer loop
vertex -5.212560 9.686550 2.000000
vertex -5.782520 9.357480 2.000000
vertex 0.000000 0.000000 2.000000
endloop
endfacet
facet normal 0.000000 0.000000 1.000000
outer loop
vertex 0.000000 0.000000 2.000000
vertex -5.782520 9.357480 2.000000
vertex -6.331790 8.994910 2.000000
endloop
endfacet
facet normal 0.000000 0.000000 1.000000
outer loop
vertex -2.767450 10.646200 2.000000
vertex -3.399190 10.461600 2.000000
vertex 0.000000 0.000000 2.000000
endloop
endfacet
facet normal 0.000000 0.000000 1.000000
outer loop
vertex -3.399190 10.461600 2.000000
vertex -4.018750 10.239600 2.000000
vertex 0.000000 0.000000 2.000000
endloop
endfacet
facet normal 0.000000 0.000000 1.000000
outer loop
vertex 0.000000 0.000000 2.000000
vertex -4.018750 10.239600 2.000000
vertex -4.623930 9.980950 2.000000
endloop
endfacet
facet normal 0.000000 0.000000 1.000000
outer loop
vertex -0.822031 10.969200 2.000000
vertex -1.476570 10.900400 2.000000
vertex 0.000000 0.000000 2.000000
endloop
endfacet
facet normal 0.000000 0.000000 1.000000
outer loop
vertex -1.476570 10.900400 2.000000
vertex -2.125820 10.792600 2.000000
vertex 0.000000 0.000000 2.000000
endloop
endfacet
facet normal 0.000000 0.000000 1.000000
outer loop
vertex 0.000000 0.000000 2.000000
vertex -2.125820 10.792600 2.000000
vertex -2.767450 10.646200 2.000000
endloop
endfacet
facet normal 0.000000 0.000000 1.000000
outer loop
vertex 1.149810 10.939700 2.000000
vertex 0.493513 10.988900 2.000000
vertex 0.000000 0.000000 2.000000
endloop
endfacet
facet normal 0.000000 0.000000 1.000000
outer loop
vertex 0.493513 10.988900 2.000000
vertex -0.164553 10.998800 2.000000
vertex 0.000000 0.000000 2.000000
endloop
endfacet
facet normal 0.000000 0.000000 1.000000
outer loop
vertex 0.000000 0.000000 2.000000
vertex -0.164553 10.998800 2.000000
vertex -0.822031 10.969200 2.000000
endloop
endfacet
facet normal 0.000000 0.000000 1.000000
outer loop
vertex 3.084700 10.558600 2.000000
vertex 2.447730 10.724200 2.000000
vertex 0.000000 0.000000 2.000000
endloop
endfacet
facet normal 0.000000 0.000000 1.000000
outer loop
vertex 2.447730 10.724200 2.000000
vertex 1.802000 10.851400 2.000000
vertex 0.000000 0.000000 2.000000
endloop
endfacet
facet normal 0.000000 0.000000 1.000000
outer loop
vertex 0.000000 0.000000 2.000000
vertex 1.802000 10.851400 2.000000
vertex 1.149810 10.939700 2.000000
endloop
endfacet
facet normal 0.000000 0.000000 1.000000
outer loop
vertex 4.920440 9.838150 2.000000
vertex 4.323280 10.114800 2.000000
vertex 0.000000 0.000000 2.000000
endloop
endfacet
facet normal 0.000000 0.000000 1.000000
outer loop
vertex 4.323280 10.114800 2.000000
vertex 3.710630 10.355300 2.000000
vertex 0.000000 0.000000 2.000000
endloop
endfacet
facet normal 0.000000 0.000000 1.000000
outer loop
vertex 0.000000 0.000000 2.000000
vertex 3.710630 10.355300 2.000000
vertex 3.084700 10.558600 2.000000
endloop
endfacet
facet normal 0.000000 0.000000 1.000000
outer loop
vertex 6.598040 8.801470 2.000000
vertex 6.059870 9.180310 2.000000
vertex 0.000000 0.000000 2.000000
endloop
endfacet
facet normal 0.000000 0.000000 1.000000
outer loop
vertex 6.059870 9.180310 2.000000
vertex 5.500000 9.526280 2.000000
vertex 0.000000 0.000000 2.000000
endloop
endfacet
facet normal 0.000000 0.000000 1.000000
outer loop
vertex 0.000000 0.000000 2.000000
vertex 5.500000 9.526280 2.000000
vertex 4.920440 9.838150 2.000000
endloop
endfacet
facet normal 0.000000 0.000000 1.000000
outer loop
vertex 8.063570 7.481900 2.000000
vertex 7.601690 7.950740 2.000000
vertex 0.000000 0.000000 2.000000
endloop
endfacet
facet normal 0.000000 0.000000 1.000000
outer loop
vertex 7.601690 7.950740 2.000000
vertex 7.112600 8.391130 2.000000
vertex 0.000000 0.000000 2.000000
endloop
endfacet
facet normal 0.000000 0.000000 1.000000
outer loop
vertex 0.000000 0.000000 2.000000
vertex 7.112600 8.391130 2.000000
vertex 6.598040 8.801470 2.000000
endloop
endfacet
facet normal 0.000000 0.000000 1.000000
outer loop
vertex 9.269930 5.921860 2.000000
vertex 8.899190 6.465640 2.000000
vertex 0.000000 0.000000 2.000000
endloop
endfacet
facet normal 0.000000 0.000000 1.000000
outer loop
vertex 8.899190 6.465640 2.000000
vertex 8.496590 6.986270 2.000000
vertex 0.000000 0.000000 2.000000
endloop
endfacet
facet normal 0.000000 0.000000 1.000000
outer loop
vertex 0.000000 0.000000 2.000000
vertex 8.496590 6.986270 2.000000
vertex 8.063570 7.481900 2.000000
endloop
endfacet
facet normal 0.000000 0.000000 1.000000
outer loop
vertex 10.178300 4.171480 2.000000
vertex 9.910660 4.772720 2.000000
vertex 0.000000 0.000000 2.000000
endloop
endfacet
facet normal 0.000000 0.000000 1.000000
outer loop
vertex 9.910660 4.772720 2.000000
vertex 9.607490 5.356880 2.000000
vertex 0.000000 0.000000 2.000000
endloop
endfacet
facet normal 0.000000 0.000000 1.000000
outer loop
vertex 0.000000 0.000000 2.000000
vertex 9.607490 5.356880 2.000000
vertex 9.269930 5.921860 2.000000
endloop
endfacet
facet normal 0.000000 0.000000 1.000000
outer loop
vertex 10.759600 2.287030 2.000000
vertex 10.603600 2.926410 2.000000
vertex 0.000000 0.000000 2.000000
endloop
endfacet
facet normal 0.000000 0.000000 1.000000
outer loop
vertex 10.603600 2.926410 2.000000
vertex 10.409600 3.555310 2.000000
vertex 0.000000 0.000000 2.000000
endloop
endfacet
facet normal 0.000000 0.000000 1.000000
outer loop
vertex 0.000000 0.000000 2.000000
vertex 10.409600 3.555310 2.000000
vertex 10.178300 4.171480 2.000000
endloop
endfacet
facet normal 0.000000 0.000000 1.000000
outer loop
vertex 10.995100 0.329070 2.000000
vertex 10.955700 0.986032 2.000000
vertex 0.000000 0.000000 2.000000
endloop
endfacet
facet normal 0.000000 0.000000 1.000000
outer loop
vertex 10.955700 0.986032 2.000000
vertex 10.877100 1.639460 2.000000
vertex 0.000000 0.000000 2.000000
endloop
endfacet
facet normal 0.000000 0.000000 1.000000
outer loop
vertex 0.000000 0.000000 2.000000
vertex 10.877100 1.639460 2.000000
vertex 10.759600 2.287030 2.000000
endloop
endfacet
facet normal 0.000000 0.000000 -1.000000
outer loop
vertex 11.000000 0.000000 0.000000
vertex 10.995100 -0.329070 0.000000
vertex 0.000000 0.000000 0.000000
endloop
endfacet
facet normal 0.000000 0.000000 -1.000000
outer loop
vertex 10.877100 1.639460 0.000000
vertex 10.955700 0.986032 0.000000
vertex 0.000000 0.000000 0.000000
endloop
endfacet
facet normal 0.000000 0.000000 -1.000000
outer loop
vertex 10.955700 0.986032 0.000000
vertex 10.995100 0.329070 0.000000
vertex 0.000000 0.000000 0.000000
endloop
endfacet
facet normal 0.000000 0.000000 -1.000000
outer loop
vertex 0.000000 0.000000 0.000000
vertex 10.995100 0.329070 0.000000
vertex 11.000000 0.000000 0.000000
endloop
endfacet
facet normal 0.000000 0.000000 -1.000000
outer loop
vertex 10.409600 3.555310 0.000000
vertex 10.603600 2.926410 0.000000
vertex 0.000000 0.000000 0.000000
endloop
endfacet
facet normal 0.000000 0.000000 -1.000000
outer loop
vertex 10.603600 2.926410 0.000000
vertex 10.759600 2.287030 0.000000
vertex 0.000000 0.000000 0.000000
endloop
endfacet
facet normal 0.000000 0.000000 -1.000000
outer loop
vertex 0.000000 0.000000 0.000000
vertex 10.759600 2.287030 0.000000
vertex 10.877100 1.639460 0.000000
endloop
endfacet
facet normal 0.000000 0.000000 -1.000000
outer loop
vertex 9.607490 5.356880 0.000000
vertex 9.910660 4.772720 0.000000
vertex 0.000000 0.000000 0.000000
endloop
endfacet
facet normal 0.000000 0.000000 -1.000000
outer loop
vertex 9.910660 4.772720 0.000000
vertex 10.178300 4.171480 0.000000
vertex 0.000000 0.000000 0.000000
endloop
endfacet
facet normal 0.000000 0.000000 -1.000000
outer loop
vertex 0.000000 0.000000 0.000000
vertex 10.178300 4.171480 0.000000
vertex 10.409600 3.555310 0.000000
endloop
endfacet
facet normal 0.000000 0.000000 -1.000000
outer loop
vertex 8.496590 6.986270 0.000000
vertex 8.899190 6.465640 0.000000
vertex 0.000000 0.000000 0.000000
endloop
endfacet
facet normal 0.000000 0.000000 -1.000000
outer loop
vertex 8.899190 6.465640 0.000000
vertex 9.269930 5.921860 0.000000
vertex 0.000000 0.000000 0.000000
endloop
endfacet
facet normal 0.000000 0.000000 -1.000000
outer loop
vertex 0.000000 0.000000 0.000000
vertex 9.269930 5.921860 0.000000
vertex 9.607490 5.356880 0.000000
endloop
endfacet
facet normal 0.000000 0.000000 -1.000000
outer loop
vertex 7.112600 8.391130 0.000000
vertex 7.601690 7.950740 0.000000
vertex 0.000000 0.000000 0.000000
endloop
endfacet
facet normal 0.000000 0.000000 -1.000000
outer loop
vertex 7.601690 7.950740 0.000000
vertex 8.063570 7.481900 0.000000
vertex 0.000000 0.000000 0.000000
endloop
endfacet
facet normal 0.000000 0.000000 -1.000000
outer loop
vertex 0.000000 0.000000 0.000000
vertex 8.063570 7.481900 0.000000
vertex 8.496590 6.986270 0.000000
endloop
endfacet
facet normal 0.000000 0.000000 -1.000000
outer loop
vertex 5.500000 9.526280 0.000000
vertex 6.059870 9.180310 0.000000
vertex 0.000000 0.000000 0.000000
endloop
endfacet
facet normal 0.000000 0.000000 -1.000000
outer loop
vertex 6.059870 9.180310 0.000000
vertex 6.598040 8.801470 0.000000
vertex 0.000000 0.000000 0.000000
endloop
endfacet
facet normal 0.000000 0.000000 -1.000000
outer loop
vertex 0.000000 0.000000 0.000000
vertex 6.598040 8.801470 0.000000
vertex 7.112600 8.391130 0.000000
endloop
endfacet
facet normal 0.000000 0.000000 -1.000000
outer loop
vertex 3.710630 10.355300 0.000000
vertex 4.323280 10.114800 0.000000
vertex 0.000000 0.000000 0.000000
endloop
endfacet
facet normal 0.000000 0.000000 -1.000000
outer loop
vertex 4.323280 10.114800 0.000000
vertex 4.920440 9.838150 0.000000
vertex 0.000000 0.000000 0.000000
endloop
endfacet
facet normal 0.000000 0.000000 -1.000000
outer loop
vertex 0.000000 0.000000 0.000000
vertex 4.920440 9.838150 0.000000
vertex 5.500000 9.526280 0.000000
endloop
endfacet
facet normal 0.000000 0.000000 -1.000000
outer loop
vertex 1.802000 10.851400 0.000000
vertex 2.447730 10.724200 0.000000
vertex 0.000000 0.000000 0.000000
endloop
endfacet
facet normal 0.000000 0.000000 -1.000000
outer loop
vertex 2.447730 10.724200 0.000000
vertex 3.084700 10.558600 0.000000
vertex 0.000000 0.000000 0.000000
endloop
endfacet
facet normal 0.000000 0.000000 -1.000000
outer loop
vertex 0.000000 0.000000 0.000000
vertex 3.084700 10.558600 0.000000
vertex 3.710630 10.355300 0.000000
endloop
endfacet
facet normal 0.000000 0.000000 -1.000000
outer loop
vertex -0.164553 10.998800 0.000000
vertex 0.493513 10.988900 0.000000
vertex 0.000000 0.000000 0.000000
endloop
endfacet
facet normal 0.000000 0.000000 -1.000000
outer loop
vertex 0.493513 10.988900 0.000000
vertex 1.149810 10.939700 0.000000
vertex 0.000000 0.000000 0.000000
endloop
endfacet
facet normal 0.000000 0.000000 -1.000000
outer loop
vertex 0.000000 0.000000 0.000000
vertex 1.149810 10.939700 0.000000
vertex 1.802000 10.851400 0.000000
endloop
endfacet
facet normal 0.000000 0.000000 -1.000000
outer loop
vertex -2.125820 10.792600 0.000000
vertex -1.476570 10.900400 0.000000
vertex 0.000000 0.000000 0.000000
endloop
endfacet
facet normal 0.000000 0.000000 -1.000000
outer loop
vertex -1.476570 10.900400 0.000000
vertex -0.822031 10.969200 0.000000
vertex 0.000000 0.000000 0.000000
endloop
endfacet
facet normal 0.000000 0.000000 -1.000000
outer loop
vertex 0.000000 0.000000 0.000000
vertex -0.822031 10.969200 0.000000
vertex -0.164553 10.998800 0.000000
endloop
endfacet
facet normal 0.000000 0.000000 -1.000000
outer loop
vertex -4.018750 10.239600 0.000000
vertex -3.399190 10.461600 0.000000
vertex 0.000000 0.000000 0.000000
endloop
endfacet
facet normal 0.000000 0.000000 -1.000000
outer loop
vertex -3.399190 10.461600 0.000000
vertex -2.767450 10.646200 0.000000
vertex 0.000000 0.000000 0.000000
endloop
endfacet
facet normal 0.000000 0.000000 -1.000000
outer loop
vertex 0.000000 0.000000 0.000000
vertex -2.767450 10.646200 0.000000
vertex -2.125820 10.792600 0.000000
endloop
endfacet
facet normal 0.000000 0.000000 -1.000000
outer loop
vertex -5.782520 9.357480 0.000000
vertex -5.212560 9.686550 0.000000
vertex 0.000000 0.000000 0.000000
endloop
endfacet
facet normal 0.000000 0.000000 -1.000000
outer loop
vertex -5.212560 9.686550 0.000000
vertex -4.623930 9.980950 0.000000
vertex 0.000000 0.000000 0.000000
endloop
endfacet
facet normal 0.000000 0.000000 -1.000000
outer loop
vertex 0.000000 0.000000 0.000000
vertex -4.623930 9.980950 0.000000
vertex -4.018750 10.239600 0.000000
endloop
endfacet
facet normal 0.000000 0.000000 -1.000000
outer loop
vertex -7.360440 8.174590 0.000000
vertex -6.858390 8.600150 0.000000
vertex 0.000000 0.000000 0.000000
endloop
endfacet
facet normal 0.000000 0.000000 -1.000000
outer loop
vertex -6.858390 8.600150 0.000000
vertex -6.331790 8.994910 0.000000
vertex 0.000000 0.000000 0.000000
endloop
endfacet
facet normal 0.000000 0.000000 -1.000000
outer loop
vertex 0.000000 0.000000 0.000000
vertex -6.331790 8.994910 0.000000
vertex -5.782520 9.357480 0.000000
endloop
endfacet
facet normal 0.000000 0.000000 -1.000000
outer loop
vertex -8.701780 6.728970 0.000000
vertex -8.283790 7.237330 0.000000
vertex 0.000000 0.000000 0.000000
endloop
endfacet
facet normal 0.000000 0.000000 -1.000000
outer loop
vertex -8.283790 7.237330 0.000000
vertex -7.836140 7.719780 0.000000
vertex 0.000000 0.000000 0.000000
endloop
endfacet
facet normal 0.000000 0.000000 -1.000000
outer loop
vertex 0.000000 0.000000 0.000000
vertex -7.836140 7.719780 0.000000
vertex -7.360440 8.174590 0.000000
endloop
endfacet
facet normal 0.000000 0.000000 -1.000000
outer loop
vertex -9.763440 5.067070 0.000000
vertex -9.442940 5.641890 0.000000
vertex 0.000000 0.000000 0.000000
endloop
endfacet
facet normal 0.000000 0.000000 -1.000000
outer loop
vertex -9.442940 5.641890 0.000000
vertex -9.088630 6.196520 0.000000
vertex 0.000000 0.000000 0.000000
endloop
endfacet
facet normal 0.000000 0.000000 -1.000000
outer loop
vertex 0.000000 0.000000 0.000000
vertex -9.088630 6.196520 0.000000
vertex -8.701780 6.728970 0.000000
endloop
endfacet
facet normal 0.000000 0.000000 -1.000000
outer loop
vertex -10.511300 3.242310 0.000000
vertex -10.298600 3.865120 0.000000
vertex 0.000000 0.000000 0.000000
endloop
endfacet
facet normal 0.000000 0.000000 -1.000000
outer loop
vertex -10.298600 3.865120 0.000000
vertex -10.049000 4.474100 0.000000
vertex 0.000000 0.000000 0.000000
endloop
endfacet
facet normal 0.000000 0.000000 -1.000000
outer loop
vertex 0.000000 0.000000 0.000000
vertex -10.049000 4.474100 0.000000
vertex -9.763440 5.067070 0.000000
endloop
endfacet
facet normal 0.000000 0.000000 -1.000000
outer loop
vertex -10.921300 1.313340 0.000000
vertex -10.823200 1.964130 0.000000
vertex 0.000000 0.000000 0.000000
endloop
endfacet
facet normal 0.000000 0.000000 -1.000000
outer loop
vertex -10.823200 1.964130 0.000000
vertex -10.686400 2.607880 0.000000
vertex 0.000000 0.000000 0.000000
endloop
endfacet
facet normal 0.000000 0.000000 -1.000000
outer loop
vertex 0.000000 0.000000 0.000000
vertex -10.686400 2.607880 0.000000
vertex -10.511300 3.242310 0.000000
endloop
endfacet
facet normal 0.000000 0.000000 -1.000000
outer loop
vertex -10.980300 -0.657846 0.000000
vertex -11.000000 0.000000 0.000000
vertex 0.000000 0.000000 0.000000
endloop
endfacet
facet normal 0.000000 0.000000 -1.000000
outer loop
vertex -11.000000 0.000000 0.000000
vertex -10.980300 0.657846 0.000000
vertex 0.000000 0.000000 0.000000
endloop
endfacet
facet normal 0.000000 0.000000 -1.000000
outer loop
vertex 0.000000 0.000000 0.000000
vertex -10.980300 0.657846 0.000000
vertex -10.921300 1.313340 0.000000
endloop
endfacet
facet normal 0.000000 0.000000 -1.000000
outer loop
vertex -10.686400 -2.607880 0.000000
vertex -10.823200 -1.964130 0.000000
vertex 0.000000 0.000000 0.000000
endloop
endfacet
facet normal 0.000000 0.000000 -1.000000
outer loop
vertex -10.823200 -1.964130 0.000000
vertex -10.921300 -1.313340 0.000000
vertex 0.000000 0.000000 0.000000
endloop
endfacet
facet normal 0.000000 0.000000 -1.000000
outer loop
vertex 0.000000 0.000000 0.000000
vertex -10.921300 -1.313340 0.000000
vertex -10.980300 -0.657846 0.000000
endloop
endfacet
facet normal 0.000000 0.000000 -1.000000
outer loop
vertex -10.049000 -4.474100 0.000000
vertex -10.298600 -3.865120 0.000000
vertex 0.000000 0.000000 0.000000
endloop
endfacet
facet normal 0.000000 0.000000 -1.000000
outer loop
vertex -10.298600 -3.865120 0.000000
vertex -10.511300 -3.242310 0.000000
vertex 0.000000 0.000000 0.000000
endloop
endfacet
facet normal 0.000000 0.000000 -1.000000
outer loop
vertex 0.000000 0.000000 0.000000
vertex -10.511300 -3.242310 0.000000
vertex -10.686400 -2.607880 0.000000
endloop
endfacet
facet normal 0.000000 0.000000 -1.000000
outer loop
vertex -9.088630 -6.196520 0.000000
vertex -9.442940 -5.641890 0.000000
vertex 0.000000 0.000000 0.000000
endloop
endfacet
facet normal 0.000000 0.000000 -1.000000
outer loop
vertex -9.442940 -5.641890 0.000000
vertex -9.763440 -5.067070 0.000000
vertex 0.000000 0.000000 0.000000
endloop
endfacet
facet normal 0.000000 0.000000 -1.000000
outer loop
vertex 0.000000 0.000000 0.000000
vertex -9.763440 -5.067070 0.000000
vertex -10.049000 -4.474100 0.000000
endloop
endfacet
facet normal 0.000000 0.000000 -1.000000
outer loop
vertex -7.836140 -7.719780 0.000000
vertex -8.283790 -7.237330 0.000000
vertex 0.000000 0.000000 0.000000
endloop
endfacet
facet normal 0.000000 0.000000 -1.000000
outer loop
vertex -8.283790 -7.237330 0.000000
vertex -8.701780 -6.728970 0.000000
vertex 0.000000 0.000000 0.000000
endloop
endfacet
facet normal 0.000000 0.000000 -1.000000
outer loop
vertex 0.000000 0.000000 0.000000
vertex -8.701780 -6.728970 0.000000
vertex -9.088630 -6.196520 0.000000
endloop
endfacet
facet normal 0.000000 0.000000 -1.000000
outer loop
vertex -6.331790 -8.994910 0.000000
vertex -6.858390 -8.600150 0.000000
vertex 0.000000 0.000000 0.000000
endloop
endfacet
facet normal 0.000000 0.000000 -1.000000
outer loop
vertex -6.858390 -8.600150 0.000000
vertex -7.360440 -8.174590 0.000000
vertex 0.000000 0.000000 0.000000
endloop
endfacet
facet normal 0.000000 0.000000 -1.000000
outer loop
vertex 0.000000 0.000000 0.000000
vertex -7.360440 -8.174590 0.000000
vertex -7.836140 -7.719780 0.000000
endloop
endfacet
facet normal 0.000000 0.000000 -1.000000
outer loop
vertex -4.623930 -9.980950 0.000000
vertex -5.212560 -9.686550 0.000000
vertex 0.000000 0.000000 0.000000
endloop
endfacet
facet normal 0.000000 0.000000 -1.000000
outer loop
vertex -5.212560 -9.686550 0.000000
vertex -5.782520 -9.357480 0.000000
vertex 0.000000 0.000000 0.000000
endloop
endfacet
facet normal 0.000000 0.000000 -1.000000
outer loop
vertex 0.000000 0.000000 0.000000
vertex -5.782520 -9.357480 0.000000
vertex -6.331790 -8.994910 0.000000
endloop
endfacet
facet normal 0.000000 0.000000 -1.000000
outer loop
vertex -2.767450 -10.646200 0.000000
vertex -3.399190 -10.461600 0.000000
vertex 0.000000 0.000000 0.000000
endloop
endfacet
facet normal 0.000000 0.000000 -1.000000
outer loop
vertex -3.399190 -10.461600 0.000000
vertex -4.018750 -10.239600 0.000000
vertex 0.000000 0.000000 0.000000
endloop
endfacet
facet normal 0.000000 0.000000 -1.000000
outer loop
vertex 0.000000 0.000000 0.000000
vertex -4.018750 -10.239600 0.000000
vertex -4.623930 -9.980950 0.000000
endloop
endfacet
facet normal 0.000000 0.000000 -1.000000
outer loop
vertex -0.822031 -10.969200 0.000000
vertex -1.476570 -10.900400 0.000000
vertex 0.000000 0.000000 0.000000
endloop
endfacet
facet normal 0.000000 0.000000 -1.000000
outer loop
vertex -1.476570 -10.900400 0.000000
vertex -2.125820 -10.792600 0.000000
vertex 0.000000 0.000000 0.000000
endloop
endfacet
facet normal 0.000000 0.000000 -1.000000
outer loop
vertex 0.000000 0.000000 0.000000
vertex -2.125820 -10.792600 0.000000
vertex -2.767450 -10.646200 0.000000
endloop
endfacet
facet normal 0.000000 0.000000 -1.000000
outer loop
vertex 1.149810 -10.939700 0.000000
vertex 0.493513 -10.988900 0.000000
vertex 0.000000 0.000000 0.000000
endloop
endfacet
facet normal 0.000000 0.000000 -1.000000
outer loop
vertex 0.493513 -10.988900 0.000000
vertex -0.164553 -10.998800 0.000000
vertex 0.000000 0.000000 0.000000
endloop
endfacet
facet normal 0.000000 0.000000 -1.000000
outer loop
vertex 0.000000 0.000000 0.000000
vertex -0.164553 -10.998800 0.000000
vertex -0.822031 -10.969200 0.000000
endloop
endfacet
facet normal 0.000000 0.000000 -1.000000
outer loop
vertex 3.084700 -10.558600 0.000000
vertex 2.447730 -10.724200 0.000000
vertex 0.000000 0.000000 0.000000
endloop
endfacet
facet normal 0.000000 0.000000 -1.000000
outer loop
vertex 2.447730 -10.724200 0.000000
vertex 1.802000 -10.851400 0.000000
vertex 0.000000 0.000000 0.000000
endloop
endfacet
facet normal 0.000000 0.000000 -1.000000
outer loop
vertex 0.000000 0.000000 0.000000
vertex 1.802000 -10.851400 0.000000
vertex 1.149810 -10.939700 0.000000
endloop
endfacet
facet normal 0.000000 0.000000 -1.000000
outer loop
vertex 4.920440 -9.838150 0.000000
vertex 4.323280 -10.114800 0.000000
vertex 0.000000 0.000000 0.000000
endloop
endfacet
facet normal 0.000000 0.000000 -1.000000
outer loop
vertex 4.323280 -10.114800 0.000000
vertex 3.710630 -10.355300 0.000000
vertex 0.000000 0.000000 0.000000
endloop
endfacet
facet normal 0.000000 0.000000 -1.000000
outer loop
vertex 0.000000 0.000000 0.000000
vertex 3.710630 -10.355300 0.000000
vertex 3.084700 -10.558600 0.000000
endloop
endfacet
facet normal 0.000000 0.000000 -1.000000
outer loop
vertex 6.598040 -8.801470 0.000000
vertex 6.059870 -9.180310 0.000000
vertex 0.000000 0.000000 0.000000
endloop
endfacet
facet normal 0.000000 0.000000 -1.000000
outer loop
vertex 6.059870 -9.180310 0.000000
vertex 5.500000 -9.526280 0.000000
vertex 0.000000 0.000000 0.000000
endloop
endfacet
facet normal 0.000000 0.000000 -1.000000
outer loop
vertex 0.000000 0.000000 0.000000
vertex 5.500000 -9.526280 0.000000
vertex 4.920440 -9.838150 0.000000
endloop
endfacet
facet normal 0.000000 0.000000 -1.000000
outer loop
vertex 8.063570 -7.481900 0.000000
vertex 7.601690 -7.950740 0.000000
vertex 0.000000 0.000000 0.000000
endloop
endfacet
facet normal 0.000000 0.000000 -1.000000
outer loop
vertex 7.601690 -7.950740 0.000000
vertex 7.112600 -8.391130 0.000000
vertex 0.000000 0.000000 0.000000
endloop
endfacet
facet normal 0.000000 0.000000 -1.000000
outer loop
vertex 0.000000 0.000000 0.000000
vertex 7.112600 -8.391130 0.000000
vertex 6.598040 -8.801470 0.000000
endloop
endfacet
facet normal 0.000000 0.000000 -1.000000
outer loop
vertex 9.269930 -5.921860 0.000000
vertex 8.899190 -6.465640 0.000000
vertex 0.000000 0.000000 0.000000
endloop
endfacet
facet normal 0.000000 0.000000 -1.000000
outer loop
vertex 8.899190 -6.465640 0.000000
vertex 8.496590 -6.986270 0.000000
vertex 0.000000 0.000000 0.000000
endloop
endfacet
facet normal 0.000000 0.000000 -1.000000
outer loop
vertex 0.000000 0.000000 0.000000
vertex 8.496590 -6.986270 0.000000
vertex 8.063570 -7.481900 0.000000
endloop
endfacet
facet normal 0.000000 0.000000 -1.000000
outer loop
vertex 10.178300 -4.171480 0.000000
vertex 9.910660 -4.772720 0.000000
vertex 0.000000 0.000000 0.000000
endloop
endfacet
facet normal 0.000000 0.000000 -1.000000
outer loop
vertex 9.910660 -4.772720 0.000000
vertex 9.607490 -5.356880 0.000000
vertex 0.000000 0.000000 0.000000
endloop
endfacet
facet normal 0.000000 0.000000 -1.000000
outer loop
vertex 0.000000 0.000000 0.000000
vertex 9.607490 -5.356880 0.000000
vertex 9.269930 -5.921860 0.000000
endloop
endfacet
facet normal 0.000000 0.000000 -1.000000
outer loop
vertex 10.759600 -2.287030 0.000000
vertex 10.603600 -2.926410 0.000000
vertex 0.000000 0.000000 0.000000
endloop
endfacet
facet normal 0.000000 0.000000 -1.000000
outer loop
vertex 10.603600 -2.926410 0.000000
vertex 10.409600 -3.555310 0.000000
vertex 0.000000 0.000000 0.000000
endloop
endfacet
facet normal 0.000000 0.000000 -1.000000
outer loop
vertex 0.000000 0.000000 0.000000
vertex 10.409600 -3.555310 0.000000
vertex 10.178300 -4.171480 0.000000
endloop
endfacet
facet normal 0.000000 0.000000 -1.000000
outer loop
vertex 10.995100 -0.329070 0.000000
vertex 10.955700 -0.986032 0.000000
vertex 0.000000 0.000000 0.000000
endloop
endfacet
facet normal 0.000000 0.000000 -1.000000
outer loop
vertex 10.955700 -0.986032 0.000000
vertex 10.877100 -1.639460 0.000000
vertex 0.000000 0.000000 0.000000
endloop
endfacet
facet normal 0.000000 0.000000 -1.000000
outer loop
vertex 0.000000 0.000000 0.000000
vertex 10.877100 -1.639460 0.000000
vertex 10.759600 -2.287030 0.000000
endloop
endfacet
facet normal 0.999889 0.014889 0.000000
outer loop
vertex 10.995100 0.329070 2.000000
vertex 11.000000 0.000000 2.000000
vertex 11.000000 0.000000 0.000000
endloop
endfacet
facet normal 0.999889 -0.014889 0.000000
outer loop
vertex 11.000000 0.000000 0.000000
vertex 11.000000 0.000000 2.000000
vertex 10.995100 -0.329070 0.000000
endloop
endfacet
facet normal 0.999889 -0.014889 0.000000
outer loop
vertex 11.000000 0.000000 2.000000
vertex 10.995100 -0.329070 2.000000
vertex 10.995100 -0.329070 0.000000
endloop
endfacet
facet normal 0.998206 -0.059866 0.000000
outer loop
vertex 10.995100 -0.329070 2.000000
vertex 10.955700 -0.986032 2.000000
vertex 10.995100 -0.329070 0.000000
endloop
endfacet
facet normal 0.998206 -0.059866 0.000000
outer loop
vertex 10.995100 -0.329070 0.000000
vertex 10.955700 -0.986032 2.000000
vertex 10.955700 -0.986032 0.000000
endloop
endfacet
facet normal 0.992843 -0.119428 0.000000
outer loop
vertex 10.955700 -0.986032 2.000000
vertex 10.877100 -1.639460 2.000000
vertex 10.955700 -0.986032 0.000000
endloop
endfacet
facet normal 0.992843 -0.119428 0.000000
outer loop
vertex 10.955700 -0.986032 0.000000
vertex 10.877100 -1.639460 2.000000
vertex 10.877100 -1.639460 0.000000
endloop
endfacet
facet normal 0.983934 -0.178533 0.000000
outer loop
vertex 10.877100 -1.639460 2.000000
vertex 10.759600 -2.287030 2.000000
vertex 10.877100 -1.639460 0.000000
endloop
endfacet
facet normal 0.983934 -0.178533 0.000000
outer loop
vertex 10.877100 -1.639460 0.000000
vertex 10.759600 -2.287030 2.000000
vertex 10.759600 -2.287030 0.000000
endloop
endfacet
facet normal 0.971502 -0.237033 0.000000
outer loop
vertex 10.759600 -2.287030 2.000000
vertex 10.603600 -2.926410 2.000000
vertex 10.759600 -2.287030 0.000000
endloop
endfacet
facet normal 0.971502 -0.237033 0.000000
outer loop
vertex 10.759600 -2.287030 0.000000
vertex 10.603600 -2.926410 2.000000
vertex 10.603600 -2.926410 0.000000
endloop
endfacet
facet normal 0.955568 -0.294769 0.000000
outer loop
vertex 10.603600 -2.926410 2.000000
vertex 10.409600 -3.555310 2.000000
vertex 10.603600 -2.926410 0.000000
endloop
endfacet
facet normal 0.955569 -0.294767 0.000000
outer loop
vertex 10.603600 -2.926410 0.000000
vertex 10.409600 -3.555310 2.000000
vertex 10.409600 -3.555310 0.000000
endloop
endfacet
facet normal 0.936211 -0.351438 0.000000
outer loop
vertex 10.409600 -3.555310 2.000000
vertex 10.178300 -4.171480 2.000000
vertex 10.409600 -3.555310 0.000000
endloop
endfacet
facet normal 0.936211 -0.351438 0.000000
outer loop
vertex 10.409600 -3.555310 0.000000
vertex 10.178300 -4.171480 2.000000
vertex 10.178300 -4.171480 0.000000
endloop
endfacet
facet normal 0.913573 -0.406676 0.000000
outer loop
vertex 10.178300 -4.171480 2.000000
vertex 9.910660 -4.772720 2.000000
vertex 10.178300 -4.171480 0.000000
endloop
endfacet
facet normal 0.913574 -0.406673 0.000000
outer loop
vertex 10.178300 -4.171480 0.000000
vertex 9.910660 -4.772720 2.000000
vertex 9.910660 -4.772720 0.000000
endloop
endfacet
facet normal 0.887586 -0.460642 0.000000
outer loop
vertex 9.910660 -4.772720 2.000000
vertex 9.607490 -5.356880 2.000000
vertex 9.910660 -4.772720 0.000000
endloop
endfacet
facet normal 0.887585 -0.460644 0.000000
outer loop
vertex 9.910660 -4.772720 0.000000
vertex 9.607490 -5.356880 2.000000
vertex 9.607490 -5.356880 0.000000
endloop
endfacet
facet normal 0.858448 -0.512900 0.000000
outer loop
vertex 9.607490 -5.356880 2.000000
vertex 9.269930 -5.921860 2.000000
vertex 9.607490 -5.356880 0.000000
endloop
endfacet
facet normal 0.858450 -0.512898 0.000000
outer loop
vertex 9.607490 -5.356880 0.000000
vertex 9.269930 -5.921860 2.000000
vertex 9.269930 -5.921860 0.000000
endloop
endfacet
facet normal 0.826241 -0.563316 0.000000
outer loop
vertex 9.269930 -5.921860 2.000000
vertex 8.899190 -6.465640 2.000000
vertex 9.269930 -5.921860 0.000000
endloop
endfacet
facet normal 0.826240 -0.563318 0.000000
outer loop
vertex 9.269930 -5.921860 0.000000
vertex 8.899190 -6.465640 2.000000
vertex 8.899190 -6.465640 0.000000
endloop
endfacet
facet normal 0.791067 -0.611729 0.000000
outer loop
vertex 8.899190 -6.465640 2.000000
vertex 8.496590 -6.986270 2.000000
vertex 8.899190 -6.465640 0.000000
endloop
endfacet
facet normal 0.791068 -0.611728 0.000000
outer loop
vertex 8.899190 -6.465640 0.000000
vertex 8.496590 -6.986270 2.000000
vertex 8.496590 -6.986270 0.000000
endloop
endfacet
facet normal 0.753071 -0.657939 0.000000
outer loop
vertex 8.496590 -6.986270 2.000000
vertex 8.063570 -7.481900 2.000000
vertex 8.496590 -6.986270 0.000000
endloop
endfacet
facet normal 0.753071 -0.657939 0.000000
outer loop
vertex 8.496590 -6.986270 0.000000
vertex 8.063570 -7.481900 2.000000
vertex 8.063570 -7.481900 0.000000
endloop
endfacet
facet normal 0.712375 -0.701799 0.000000
outer loop
vertex 8.063570 -7.481900 2.000000
vertex 7.601690 -7.950740 2.000000
vertex 8.063570 -7.481900 0.000000
endloop
endfacet
facet normal 0.712374 -0.701800 0.000000
outer loop
vertex 8.063570 -7.481900 0.000000
vertex 7.601690 -7.950740 2.000000
vertex 7.601690 -7.950740 0.000000
endloop
endfacet
facet normal 0.669141 -0.743136 0.000000
outer loop
vertex 7.601690 -7.950740 2.000000
vertex 7.112600 -8.391130 2.000000
vertex 7.601690 -7.950740 0.000000
endloop
endfacet
facet normal 0.669141 -0.743136 0.000000
outer loop
vertex 7.601690 -7.950740 0.000000
vertex 7.112600 -8.391130 2.000000
vertex 7.112600 -8.391130 0.000000
endloop
endfacet
facet normal 0.623482 -0.781838 0.000000
outer loop
vertex 7.112600 -8.391130 2.000000
vertex 6.598040 -8.801470 2.000000
vertex 7.112600 -8.391130 0.000000
endloop
endfacet
facet normal 0.623482 -0.781838 0.000000
outer loop
vertex 7.112600 -8.391130 0.000000
vertex 6.598040 -8.801470 2.000000
vertex 6.598040 -8.801470 0.000000
endloop
endfacet
facet normal 0.575623 -0.817715 0.000000
outer loop
vertex 6.598040 -8.801470 2.000000
vertex 6.059870 -9.180310 2.000000
vertex 6.598040 -8.801470 0.000000
endloop
endfacet
facet normal 0.575624 -0.817715 0.000000
outer loop
vertex 6.598040 -8.801470 0.000000
vertex 6.059870 -9.180310 2.000000
vertex 6.059870 -9.180310 0.000000
endloop
endfacet
facet normal 0.525678 -0.850684 0.000000
outer loop
vertex 6.059870 -9.180310 2.000000
vertex 5.500000 -9.526280 2.000000
vertex 6.059870 -9.180310 0.000000
endloop
endfacet
facet normal 0.525678 -0.850684 0.000000
outer loop
vertex 6.059870 -9.180310 0.000000
vertex 5.500000 -9.526280 2.000000
vertex 5.500000 -9.526280 0.000000
endloop
endfacet
facet normal 0.473863 -0.880598 0.000000
outer loop
vertex 5.500000 -9.526280 2.000000
vertex 4.920440 -9.838150 2.000000
vertex 5.500000 -9.526280 0.000000
endloop
endfacet
facet normal 0.473863 -0.880599 0.000000
outer loop
vertex 5.500000 -9.526280 0.000000
vertex 4.920440 -9.838150 2.000000
vertex 4.920440 -9.838150 0.000000
endloop
endfacet
facet normal 0.420358 -0.907358 0.000000
outer loop
vertex 4.920440 -9.838150 2.000000
vertex 4.323280 -10.114800 2.000000
vertex 4.920440 -9.838150 0.000000
endloop
endfacet
facet normal 0.420358 -0.907358 0.000000
outer loop
vertex 4.920440 -9.838150 0.000000
vertex 4.323280 -10.114800 2.000000
vertex 4.323280 -10.114800 0.000000
endloop
endfacet
facet normal 0.365410 -0.930847 0.000000
outer loop
vertex 4.323280 -10.114800 2.000000
vertex 3.710630 -10.355300 2.000000
vertex 4.323280 -10.114800 0.000000
endloop
endfacet
facet normal 0.365410 -0.930847 0.000000
outer loop
vertex 4.323280 -10.114800 0.000000
vertex 3.710630 -10.355300 2.000000
vertex 3.710630 -10.355300 0.000000
endloop
endfacet
facet normal 0.308912 -0.951091 0.000000
outer loop
vertex 3.710630 -10.355300 2.000000
vertex 3.084700 -10.558600 2.000000
vertex 3.710630 -10.355300 0.000000
endloop
endfacet
facet normal 0.308912 -0.951091 0.000000
outer loop
vertex 3.710630 -10.355300 0.000000
vertex 3.084700 -10.558600 2.000000
vertex 3.084700 -10.558600 0.000000
endloop
endfacet
facet normal 0.251616 -0.967827 0.000000
outer loop
vertex 3.084700 -10.558600 2.000000
vertex 2.447730 -10.724200 2.000000
vertex 3.084700 -10.558600 0.000000
endloop
endfacet
facet normal 0.251616 -0.967827 0.000000
outer loop
vertex 3.084700 -10.558600 0.000000
vertex 2.447730 -10.724200 2.000000
vertex 2.447730 -10.724200 0.000000
endloop
endfacet
facet normal 0.193272 -0.981145 0.000000
outer loop
vertex 2.447730 -10.724200 2.000000
vertex 1.802000 -10.851400 2.000000
vertex 2.447730 -10.724200 0.000000
endloop
endfacet
facet normal 0.193272 -0.981145 0.000000
outer loop
vertex 2.447730 -10.724200 0.000000
vertex 1.802000 -10.851400 2.000000
vertex 1.802000 -10.851400 0.000000
endloop
endfacet
facet normal 0.134166 -0.990959 0.000000
outer loop
vertex 1.802000 -10.851400 2.000000
vertex 1.149810 -10.939700 2.000000
vertex 1.802000 -10.851400 0.000000
endloop
endfacet
facet normal 0.134166 -0.990959 0.000000
outer loop
vertex 1.802000 -10.851400 0.000000
vertex 1.149810 -10.939700 2.000000
vertex 1.149810 -10.939700 0.000000
endloop
endfacet
facet normal 0.074756 -0.997202 0.000000
outer loop
vertex 1.149810 -10.939700 2.000000
vertex 0.493513 -10.988900 2.000000
vertex 1.149810 -10.939700 0.000000
endloop
endfacet
facet normal 0.074756 -0.997202 0.000000
outer loop
vertex 1.149810 -10.939700 0.000000
vertex 0.493513 -10.988900 2.000000
vertex 0.493513 -10.988900 0.000000
endloop
endfacet
facet normal 0.015043 -0.999887 0.000000
outer loop
vertex 0.493513 -10.988900 2.000000
vertex -0.164553 -10.998800 2.000000
vertex 0.493513 -10.988900 0.000000
endloop
endfacet
facet normal 0.015043 -0.999887 0.000000
outer loop
vertex 0.493513 -10.988900 0.000000
vertex -0.164553 -10.998800 2.000000
vertex -0.164553 -10.998800 0.000000
endloop
endfacet
facet normal -0.044975 -0.998988 0.000000
outer loop
vertex -0.164553 -10.998800 2.000000
vertex -0.822031 -10.969200 2.000000
vertex -0.164553 -10.998800 0.000000
endloop
endfacet
facet normal -0.044975 -0.998988 0.000000
outer loop
vertex -0.164553 -10.998800 0.000000
vertex -0.822031 -10.969200 2.000000
vertex -0.822031 -10.969200 0.000000
endloop
endfacet
facet normal -0.104536 -0.994521 0.000000
outer loop
vertex -0.822031 -10.969200 2.000000
vertex -1.476570 -10.900400 2.000000
vertex -0.822031 -10.969200 0.000000
endloop
endfacet
facet normal -0.104536 -0.994521 0.000000
outer loop
vertex -0.822031 -10.969200 0.000000
vertex -1.476570 -10.900400 2.000000
vertex -1.476570 -10.900400 0.000000
endloop
endfacet
facet normal -0.163796 -0.986494 0.000000
outer loop
vertex -1.476570 -10.900400 2.000000
vertex -2.125820 -10.792600 2.000000
vertex -1.476570 -10.900400 0.000000
endloop
endfacet
facet normal -0.163796 -0.986494 0.000000
outer loop
vertex -1.476570 -10.900400 0.000000
vertex -2.125820 -10.792600 2.000000
vertex -2.125820 -10.792600 0.000000
endloop
endfacet
facet normal -0.222451 -0.974944 0.000000
outer loop
vertex -2.125820 -10.792600 2.000000
vertex -2.767450 -10.646200 2.000000
vertex -2.125820 -10.792600 0.000000
endloop
endfacet
facet normal -0.222451 -0.974944 0.000000
outer loop
vertex -2.125820 -10.792600 0.000000
vertex -2.767450 -10.646200 2.000000
vertex -2.767450 -10.646200 0.000000
endloop
endfacet
facet normal -0.280479 -0.959860 0.000000
outer loop
vertex -2.767450 -10.646200 2.000000
vertex -3.399190 -10.461600 2.000000
vertex -2.767450 -10.646200 0.000000
endloop
endfacet
facet normal -0.280480 -0.959860 0.000000
outer loop
vertex -2.767450 -10.646200 0.000000
vertex -3.399190 -10.461600 2.000000
vertex -3.399190 -10.461600 0.000000
endloop
endfacet
facet normal -0.337318 -0.941391 0.000000
outer loop
vertex -3.399190 -10.461600 2.000000
vertex -4.018750 -10.239600 2.000000
vertex -3.399190 -10.461600 0.000000
endloop
endfacet
facet normal -0.337318 -0.941391 0.000000
outer loop
vertex -3.399190 -10.461600 0.000000
vertex -4.018750 -10.239600 2.000000
vertex -4.018750 -10.239600 0.000000
endloop
endfacet
facet normal -0.393004 -0.919537 0.000000
outer loop
vertex -4.018750 -10.239600 2.000000
vertex -4.623930 -9.980950 2.000000
vertex -4.018750 -10.239600 0.000000
endloop
endfacet
facet normal -0.393004 -0.919537 0.000000
outer loop
vertex -4.018750 -10.239600 0.000000
vertex -4.623930 -9.980950 2.000000
vertex -4.623930 -9.980950 0.000000
endloop
endfacet
facet normal -0.447317 -0.894376 0.000000
outer loop
vertex -4.623930 -9.980950 2.000000
vertex -5.212560 -9.686550 2.000000
vertex -4.623930 -9.980950 0.000000
endloop
endfacet
facet normal -0.447317 -0.894375 0.000000
outer loop
vertex -4.623930 -9.980950 0.000000
vertex -5.212560 -9.686550 2.000000
vertex -5.212560 -9.686550 0.000000
endloop
endfacet
facet normal -0.500004 -0.866023 0.000000
outer loop
vertex -5.212560 -9.686550 2.000000
vertex -5.782520 -9.357480 2.000000
vertex -5.212560 -9.686550 0.000000
endloop
endfacet
facet normal -0.500004 -0.866023 0.000000
outer loop
vertex -5.212560 -9.686550 0.000000
vertex -5.782520 -9.357480 2.000000
vertex -5.782520 -9.357480 0.000000
endloop
endfacet
facet normal -0.550897 -0.834573 0.000000
outer loop
vertex -5.782520 -9.357480 2.000000
vertex -6.331790 -8.994910 2.000000
vertex -5.782520 -9.357480 0.000000
endloop
endfacet
facet normal -0.550896 -0.834574 0.000000
outer loop
vertex -5.782520 -9.357480 0.000000
vertex -6.331790 -8.994910 2.000000
vertex -6.331790 -8.994910 0.000000
endloop
endfacet
facet normal -0.599815 -0.800138 0.000000
outer loop
vertex -6.331790 -8.994910 2.000000
vertex -6.858390 -8.600150 2.000000
vertex -6.331790 -8.994910 0.000000
endloop
endfacet
facet normal -0.599815 -0.800138 0.000000
outer loop
vertex -6.331790 -8.994910 0.000000
vertex -6.858390 -8.600150 2.000000
vertex -6.858390 -8.600150 0.000000
endloop
endfacet
facet normal -0.646604 -0.762825 0.000000
outer loop
vertex -6.858390 -8.600150 2.000000
vertex -7.360440 -8.174590 2.000000
vertex -6.858390 -8.600150 0.000000
endloop
endfacet
facet normal -0.646605 -0.762825 0.000000
outer loop
vertex -6.858390 -8.600150 0.000000
vertex -7.360440 -8.174590 2.000000
vertex -7.360440 -8.174590 0.000000
endloop
endfacet
facet normal -0.691058 -0.722799 0.000000
outer loop
vertex -7.360440 -8.174590 2.000000
vertex -7.836140 -7.719780 2.000000
vertex -7.360440 -8.174590 0.000000
endloop
endfacet
facet normal -0.691058 -0.722799 0.000000
outer loop
vertex -7.360440 -8.174590 0.000000
vertex -7.836140 -7.719780 2.000000
vertex -7.836140 -7.719780 0.000000
endloop
endfacet
facet normal -0.733051 -0.680174 0.000000
outer loop
vertex -7.836140 -7.719780 2.000000
vertex -8.283790 -7.237330 2.000000
vertex -7.836140 -7.719780 0.000000
endloop
endfacet
facet normal -0.733051 -0.680173 0.000000
outer loop
vertex -7.836140 -7.719780 0.000000
vertex -8.283790 -7.237330 2.000000
vertex -8.283790 -7.237330 0.000000
endloop
endfacet
facet normal -0.772422 -0.635110 0.000000
outer loop
vertex -8.283790 -7.237330 2.000000
vertex -8.701780 -6.728970 2.000000
vertex -8.283790 -7.237330 0.000000
endloop
endfacet
facet normal -0.772420 -0.635112 0.000000
outer loop
vertex -8.283790 -7.237330 0.000000
vertex -8.701780 -6.728970 2.000000
vertex -8.701780 -6.728970 0.000000
endloop
endfacet
facet normal -0.809016 -0.587786 0.000000
outer loop
vertex -8.701780 -6.728970 2.000000
vertex -9.088630 -6.196520 2.000000
vertex -8.701780 -6.728970 0.000000
endloop
endfacet
facet normal -0.809015 -0.587788 0.000000
outer loop
vertex -8.701780 -6.728970 0.000000
vertex -9.088630 -6.196520 2.000000
vertex -9.088630 -6.196520 0.000000
endloop
endfacet
facet normal -0.842721 -0.538351 0.000000
outer loop
vertex -9.088630 -6.196520 2.000000
vertex -9.442940 -5.641890 2.000000
vertex -9.088630 -6.196520 0.000000
endloop
endfacet
facet normal -0.842722 -0.538349 0.000000
outer loop
vertex -9.088630 -6.196520 0.000000
vertex -9.442940 -5.641890 2.000000
vertex -9.442940 -5.641890 0.000000
endloop
endfacet
facet normal -0.873411 -0.486983 0.000000
outer loop
vertex -9.442940 -5.641890 2.000000
vertex -9.763440 -5.067070 2.000000
vertex -9.442940 -5.641890 0.000000
endloop
endfacet
facet normal -0.873410 -0.486986 0.000000
outer loop
vertex -9.442940 -5.641890 0.000000
vertex -9.763440 -5.067070 2.000000
vertex -9.763440 -5.067070 0.000000
endloop
endfacet
facet normal -0.900969 -0.433883 0.000000
outer loop
vertex -9.763440 -5.067070 2.000000
vertex -10.049000 -4.474100 2.000000
vertex -9.763440 -5.067070 0.000000
endloop
endfacet
facet normal -0.900968 -0.433885 0.000000
outer loop
vertex -9.763440 -5.067070 0.000000
vertex -10.049000 -4.474100 2.000000
vertex -10.049000 -4.474100 0.000000
endloop
endfacet
facet normal -0.925296 -0.379246 0.000000
outer loop
vertex -10.049000 -4.474100 2.000000
vertex -10.298600 -3.865120 2.000000
vertex -10.049000 -4.474100 0.000000
endloop
endfacet
facet normal -0.925295 -0.379249 0.000000
outer loop
vertex -10.049000 -4.474100 0.000000
vertex -10.298600 -3.865120 2.000000
vertex -10.298600 -3.865120 0.000000
endloop
endfacet
facet normal -0.946335 -0.323189 0.000000
outer loop
vertex -10.298600 -3.865120 2.000000
vertex -10.511300 -3.242310 2.000000
vertex -10.298600 -3.865120 0.000000
endloop
endfacet
facet normal -0.946335 -0.323189 0.000000
outer loop
vertex -10.298600 -3.865120 0.000000
vertex -10.511300 -3.242310 2.000000
vertex -10.511300 -3.242310 0.000000
endloop
endfacet
facet normal -0.963959 -0.266049 0.000000
outer loop
vertex -10.511300 -3.242310 2.000000
vertex -10.686400 -2.607880 2.000000
vertex -10.511300 -3.242310 0.000000
endloop
endfacet
facet normal -0.963959 -0.266049 0.000000
outer loop
vertex -10.511300 -3.242310 0.000000
vertex -10.686400 -2.607880 2.000000
vertex -10.686400 -2.607880 0.000000
endloop
endfacet
facet normal -0.978158 -0.207864 0.000000
outer loop
vertex -10.686400 -2.607880 2.000000
vertex -10.823200 -1.964130 2.000000
vertex -10.686400 -2.607880 0.000000
endloop
endfacet
facet normal -0.978158 -0.207862 0.000000
outer loop
vertex -10.686400 -2.607880 0.000000
vertex -10.823200 -1.964130 2.000000
vertex -10.823200 -1.964130 0.000000
endloop
endfacet
facet normal -0.988829 -0.149054 0.000000
outer loop
vertex -10.823200 -1.964130 2.000000
vertex -10.921300 -1.313340 2.000000
vertex -10.823200 -1.964130 0.000000
endloop
endfacet
facet normal -0.988829 -0.149057 0.000000
outer loop
vertex -10.823200 -1.964130 0.000000
vertex -10.921300 -1.313340 2.000000
vertex -10.921300 -1.313340 0.000000
endloop
endfacet
facet normal -0.995974 -0.089646 0.000000
outer loop
vertex -10.921300 -1.313340 2.000000
vertex -10.980300 -0.657846 2.000000
vertex -10.921300 -1.313340 0.000000
endloop
endfacet
facet normal -0.995974 -0.089646 0.000000
outer loop
vertex -10.921300 -1.313340 0.000000
vertex -10.980300 -0.657846 2.000000
vertex -10.980300 -0.657846 0.000000
endloop
endfacet
facet normal -0.999552 -0.029934 0.000000
outer loop
vertex -10.980300 -0.657846 2.000000
vertex -11.000000 0.000000 2.000000
vertex -10.980300 -0.657846 0.000000
endloop
endfacet
facet normal -0.999552 -0.029931 0.000000
outer loop
vertex -10.980300 -0.657846 0.000000
vertex -11.000000 0.000000 2.000000
vertex -11.000000 0.000000 0.000000
endloop
endfacet
facet normal -0.999552 0.029931 0.000000
outer loop
vertex -11.000000 0.000000 2.000000
vertex -10.980300 0.657846 2.000000
vertex -11.000000 0.000000 0.000000
endloop
endfacet
facet normal -0.999552 0.029934 0.000000
outer loop
vertex -11.000000 0.000000 0.000000
vertex -10.980300 0.657846 2.000000
vertex -10.980300 0.657846 0.000000
endloop
endfacet
facet normal -0.995974 0.089646 0.000000
outer loop
vertex -10.980300 0.657846 2.000000
vertex -10.921300 1.313340 2.000000
vertex -10.980300 0.657846 0.000000
endloop
endfacet
facet normal -0.995974 0.089646 0.000000
outer loop
vertex -10.980300 0.657846 0.000000
vertex -10.921300 1.313340 2.000000
vertex -10.921300 1.313340 0.000000
endloop
endfacet
facet normal -0.988829 0.149057 0.000000
outer loop
vertex -10.921300 1.313340 2.000000
vertex -10.823200 1.964130 2.000000
vertex -10.921300 1.313340 0.000000
endloop
endfacet
facet normal -0.988829 0.149054 0.000000
outer loop
vertex -10.921300 1.313340 0.000000
vertex -10.823200 1.964130 2.000000
vertex -10.823200 1.964130 0.000000
endloop
endfacet
facet normal -0.978158 0.207862 0.000000
outer loop
vertex -10.823200 1.964130 2.000000
vertex -10.686400 2.607880 2.000000
vertex -10.823200 1.964130 0.000000
endloop
endfacet
facet normal -0.978158 0.207864 0.000000
outer loop
vertex -10.823200 1.964130 0.000000
vertex -10.686400 2.607880 2.000000
vertex -10.686400 2.607880 0.000000
endloop
endfacet
facet normal -0.963959 0.266049 0.000000
outer loop
vertex -10.686400 2.607880 2.000000
vertex -10.511300 3.242310 2.000000
vertex -10.686400 2.607880 0.000000
endloop
endfacet
facet normal -0.963959 0.266049 0.000000
outer loop
vertex -10.686400 2.607880 0.000000
vertex -10.511300 3.242310 2.000000
vertex -10.511300 3.242310 0.000000
endloop
endfacet
facet normal -0.946335 0.323189 0.000000
outer loop
vertex -10.511300 3.242310 2.000000
vertex -10.298600 3.865120 2.000000
vertex -10.511300 3.242310 0.000000
endloop
endfacet
facet normal -0.946335 0.323189 0.000000
outer loop
vertex -10.511300 3.242310 0.000000
vertex -10.298600 3.865120 2.000000
vertex -10.298600 3.865120 0.000000
endloop
endfacet
facet normal -0.925295 0.379249 0.000000
outer loop
vertex -10.298600 3.865120 2.000000
vertex -10.049000 4.474100 2.000000
vertex -10.298600 3.865120 0.000000
endloop
endfacet
facet normal -0.925296 0.379246 0.000000
outer loop
vertex -10.298600 3.865120 0.000000
vertex -10.049000 4.474100 2.000000
vertex -10.049000 4.474100 0.000000
endloop
endfacet
facet normal -0.900968 0.433885 0.000000
outer loop
vertex -10.049000 4.474100 2.000000
vertex -9.763440 5.067070 2.000000
vertex -10.049000 4.474100 0.000000
endloop
endfacet
facet normal -0.900969 0.433883 0.000000
outer loop
vertex -10.049000 4.474100 0.000000
vertex -9.763440 5.067070 2.000000
vertex -9.763440 5.067070 0.000000
endloop
endfacet
facet normal -0.873410 0.486986 0.000000
outer loop
vertex -9.763440 5.067070 2.000000
vertex -9.442940 5.641890 2.000000
vertex -9.763440 5.067070 0.000000
endloop
endfacet
facet normal -0.873411 0.486983 0.000000
outer loop
vertex -9.763440 5.067070 0.000000
vertex -9.442940 5.641890 2.000000
vertex -9.442940 5.641890 0.000000
endloop
endfacet
facet normal -0.842722 0.538349 0.000000
outer loop
vertex -9.442940 5.641890 2.000000
vertex -9.088630 6.196520 2.000000
vertex -9.442940 5.641890 0.000000
endloop
endfacet
facet normal -0.842721 0.538351 0.000000
outer loop
vertex -9.442940 5.641890 0.000000
vertex -9.088630 6.196520 2.000000
vertex -9.088630 6.196520 0.000000
endloop
endfacet
facet normal -0.809015 0.587788 0.000000
outer loop
vertex -9.088630 6.196520 2.000000
vertex -8.701780 6.728970 2.000000
vertex -9.088630 6.196520 0.000000
endloop
endfacet
facet normal -0.809016 0.587786 0.000000
outer loop
vertex -9.088630 6.196520 0.000000
vertex -8.701780 6.728970 2.000000
vertex -8.701780 6.728970 0.000000
endloop
endfacet
facet normal -0.772420 0.635112 0.000000
outer loop
vertex -8.701780 6.728970 2.000000
vertex -8.283790 7.237330 2.000000
vertex -8.701780 6.728970 0.000000
endloop
endfacet
facet normal -0.772422 0.635110 0.000000
outer loop
vertex -8.701780 6.728970 0.000000
vertex -8.283790 7.237330 2.000000
vertex -8.283790 7.237330 0.000000
endloop
endfacet
facet normal -0.733051 0.680173 0.000000
outer loop
vertex -8.283790 7.237330 2.000000
vertex -7.836140 7.719780 2.000000
vertex -8.283790 7.237330 0.000000
endloop
endfacet
facet normal -0.733051 0.680174 0.000000
outer loop
vertex -8.283790 7.237330 0.000000
vertex -7.836140 7.719780 2.000000
vertex -7.836140 7.719780 0.000000
endloop
endfacet
facet normal -0.691058 0.722799 0.000000
outer loop
vertex -7.836140 7.719780 2.000000
vertex -7.360440 8.174590 2.000000
vertex -7.836140 7.719780 0.000000
endloop
endfacet
facet normal -0.691058 0.722799 0.000000
outer loop
vertex -7.836140 7.719780 0.000000
vertex -7.360440 8.174590 2.000000
vertex -7.360440 8.174590 0.000000
endloop
endfacet
facet normal -0.646605 0.762825 0.000000
outer loop
vertex -7.360440 8.174590 2.000000
vertex -6.858390 8.600150 2.000000
vertex -7.360440 8.174590 0.000000
endloop
endfacet
facet normal -0.646604 0.762825 0.000000
outer loop
vertex -7.360440 8.174590 0.000000
vertex -6.858390 8.600150 2.000000
vertex -6.858390 8.600150 0.000000
endloop
endfacet
facet normal -0.599815 0.800138 0.000000
outer loop
vertex -6.858390 8.600150 2.000000
vertex -6.331790 8.994910 2.000000
vertex -6.858390 8.600150 0.000000
endloop
endfacet
facet normal -0.599815 0.800138 0.000000
outer loop
vertex -6.858390 8.600150 0.000000
vertex -6.331790 8.994910 2.000000
vertex -6.331790 8.994910 0.000000
endloop
endfacet
facet normal -0.550896 0.834574 0.000000
outer loop
vertex -6.331790 8.994910 2.000000
vertex -5.782520 9.357480 2.000000
vertex -6.331790 8.994910 0.000000
endloop
endfacet
facet normal -0.550897 0.834573 0.000000
outer loop
vertex -6.331790 8.994910 0.000000
vertex -5.782520 9.357480 2.000000
vertex -5.782520 9.357480 0.000000
endloop
endfacet
facet normal -0.500004 0.866023 0.000000
outer loop
vertex -5.782520 9.357480 2.000000
vertex -5.212560 9.686550 2.000000
vertex -5.782520 9.357480 0.000000
endloop
endfacet
facet normal -0.500004 0.866023 0.000000
outer loop
vertex -5.782520 9.357480 0.000000
vertex -5.212560 9.686550 2.000000
vertex -5.212560 9.686550 0.000000
endloop
endfacet
facet normal -0.447317 0.894375 0.000000
outer loop
vertex -5.212560 9.686550 2.000000
vertex -4.623930 9.980950 2.000000
vertex -5.212560 9.686550 0.000000
endloop
endfacet
facet normal -0.447317 0.894376 0.000000
outer loop
vertex -5.212560 9.686550 0.000000
vertex -4.623930 9.980950 2.000000
vertex -4.623930 9.980950 0.000000
endloop
endfacet
facet normal -0.393004 0.919537 0.000000
outer loop
vertex -4.623930 9.980950 2.000000
vertex -4.018750 10.239600 2.000000
vertex -4.623930 9.980950 0.000000
endloop
endfacet
facet normal -0.393004 0.919537 0.000000
outer loop
vertex -4.623930 9.980950 0.000000
vertex -4.018750 10.239600 2.000000
vertex -4.018750 10.239600 0.000000
endloop
endfacet
facet normal -0.337318 0.941391 0.000000
outer loop
vertex -4.018750 10.239600 2.000000
vertex -3.399190 10.461600 2.000000
vertex -4.018750 10.239600 0.000000
endloop
endfacet
facet normal -0.337318 0.941391 0.000000
outer loop
vertex -4.018750 10.239600 0.000000
vertex -3.399190 10.461600 2.000000
vertex -3.399190 10.461600 0.000000
endloop
endfacet
facet normal -0.280480 0.959860 0.000000
outer loop
vertex -3.399190 10.461600 2.000000
vertex -2.767450 10.646200 2.000000
vertex -3.399190 10.461600 0.000000
endloop
endfacet
facet normal -0.280479 0.959860 0.000000
outer loop
vertex -3.399190 10.461600 0.000000
vertex -2.767450 10.646200 2.000000
vertex -2.767450 10.646200 0.000000
endloop
endfacet
facet normal -0.222451 0.974944 0.000000
outer loop
vertex -2.767450 10.646200 2.000000
vertex -2.125820 10.792600 2.000000
vertex -2.767450 10.646200 0.000000
endloop
endfacet
facet normal -0.222451 0.974944 0.000000
outer loop
vertex -2.767450 10.646200 0.000000
vertex -2.125820 10.792600 2.000000
vertex -2.125820 10.792600 0.000000
endloop
endfacet
facet normal -0.163796 0.986494 0.000000
outer loop
vertex -2.125820 10.792600 2.000000
vertex -1.476570 10.900400 2.000000
vertex -2.125820 10.792600 0.000000
endloop
endfacet
facet normal -0.163796 0.986494 0.000000
outer loop
vertex -2.125820 10.792600 0.000000
vertex -1.476570 10.900400 2.000000
vertex -1.476570 10.900400 0.000000
endloop
endfacet
facet normal -0.104536 0.994521 0.000000
outer loop
vertex -1.476570 10.900400 2.000000
vertex -0.822031 10.969200 2.000000
vertex -1.476570 10.900400 0.000000
endloop
endfacet
facet normal -0.104536 0.994521 0.000000
outer loop
vertex -1.476570 10.900400 0.000000
vertex -0.822031 10.969200 2.000000
vertex -0.822031 10.969200 0.000000
endloop
endfacet
facet normal -0.044975 0.998988 0.000000
outer loop
vertex -0.822031 10.969200 2.000000
vertex -0.164553 10.998800 2.000000
vertex -0.822031 10.969200 0.000000
endloop
endfacet
facet normal -0.044975 0.998988 0.000000
outer loop
vertex -0.822031 10.969200 0.000000
vertex -0.164553 10.998800 2.000000
vertex -0.164553 10.998800 0.000000
endloop
endfacet
facet normal 0.015043 0.999887 0.000000
outer loop
vertex -0.164553 10.998800 2.000000
vertex 0.493513 10.988900 2.000000
vertex -0.164553 10.998800 0.000000
endloop
endfacet
facet normal 0.015043 0.999887 0.000000
outer loop
vertex -0.164553 10.998800 0.000000
vertex 0.493513 10.988900 2.000000
vertex 0.493513 10.988900 0.000000
endloop
endfacet
facet normal 0.074756 0.997202 0.000000
outer loop
vertex 0.493513 10.988900 2.000000
vertex 1.149810 10.939700 2.000000
vertex 0.493513 10.988900 0.000000
endloop
endfacet
facet normal 0.074756 0.997202 0.000000
outer loop
vertex 0.493513 10.988900 0.000000
vertex 1.149810 10.939700 2.000000
vertex 1.149810 10.939700 0.000000
endloop
endfacet
facet normal 0.134166 0.990959 0.000000
outer loop
vertex 1.149810 10.939700 2.000000
vertex 1.802000 10.851400 2.000000
vertex 1.149810 10.939700 0.000000
endloop
endfacet
facet normal 0.134166 0.990959 0.000000
outer loop
vertex 1.149810 10.939700 0.000000
vertex 1.802000 10.851400 2.000000
vertex 1.802000 10.851400 0.000000
endloop
endfacet
facet normal 0.193272 0.981145 0.000000
outer loop
vertex 1.802000 10.851400 2.000000
vertex 2.447730 10.724200 2.000000
vertex 1.802000 10.851400 0.000000
endloop
endfacet
facet normal 0.193272 0.981145 0.000000
outer loop
vertex 1.802000 10.851400 0.000000
vertex 2.447730 10.724200 2.000000
vertex 2.447730 10.724200 0.000000
endloop
endfacet
facet normal 0.251616 0.967827 0.000000
outer loop
vertex 2.447730 10.724200 2.000000
vertex 3.084700 10.558600 2.000000
vertex 2.447730 10.724200 0.000000
endloop
endfacet
facet normal 0.251616 0.967827 0.000000
outer loop
vertex 2.447730 10.724200 0.000000
vertex 3.084700 10.558600 2.000000
vertex 3.084700 10.558600 0.000000
endloop
endfacet
facet normal 0.308912 0.951091 0.000000
outer loop
vertex 3.084700 10.558600 2.000000
vertex 3.710630 10.355300 2.000000
vertex 3.084700 10.558600 0.000000
endloop
endfacet
facet normal 0.308912 0.951091 0.000000
outer loop
vertex 3.084700 10.558600 0.000000
vertex 3.710630 10.355300 2.000000
vertex 3.710630 10.355300 0.000000
endloop
endfacet
facet normal 0.365410 0.930847 0.000000
outer loop
vertex 3.710630 10.355300 2.000000
vertex 4.323280 10.114800 2.000000
vertex 3.710630 10.355300 0.000000
endloop
endfacet
facet normal 0.365410 0.930847 0.000000
outer loop
vertex 3.710630 10.355300 0.000000
vertex 4.323280 10.114800 2.000000
vertex 4.323280 10.114800 0.000000
endloop
endfacet
facet normal 0.420358 0.907358 0.000000
outer loop
vertex 4.323280 10.114800 2.000000
vertex 4.920440 9.838150 2.000000
vertex 4.323280 10.114800 0.000000
endloop
endfacet
facet normal 0.420358 0.907358 0.000000
outer loop
vertex 4.323280 10.114800 0.000000
vertex 4.920440 9.838150 2.000000
vertex 4.920440 9.838150 0.000000
endloop
endfacet
facet normal 0.473863 0.880599 0.000000
outer loop
vertex 4.920440 9.838150 2.000000
vertex 5.500000 9.526280 2.000000
vertex 4.920440 9.838150 0.000000
endloop
endfacet
facet normal 0.473863 0.880598 0.000000
outer loop
vertex 4.920440 9.838150 0.000000
vertex 5.500000 9.526280 2.000000
vertex 5.500000 9.526280 0.000000
endloop
endfacet
facet normal 0.525678 0.850684 0.000000
outer loop
vertex 5.500000 9.526280 2.000000
vertex 6.059870 9.180310 2.000000
vertex 5.500000 9.526280 0.000000
endloop
endfacet
facet normal 0.525678 0.850684 0.000000
outer loop
vertex 5.500000 9.526280 0.000000
vertex 6.059870 9.180310 2.000000
vertex 6.059870 9.180310 0.000000
endloop
endfacet
facet normal 0.575624 0.817715 0.000000
outer loop
vertex 6.059870 9.180310 2.000000
vertex 6.598040 8.801470 2.000000
vertex 6.059870 9.180310 0.000000
endloop
endfacet
facet normal 0.575623 0.817715 0.000000
outer loop
vertex 6.059870 9.180310 0.000000
vertex 6.598040 8.801470 2.000000
vertex 6.598040 8.801470 0.000000
endloop
endfacet
facet normal 0.623482 0.781838 0.000000
outer loop
vertex 6.598040 8.801470 2.000000
vertex 7.112600 8.391130 2.000000
vertex 6.598040 8.801470 0.000000
endloop
endfacet
facet normal 0.623482 0.781838 0.000000
outer loop
vertex 6.598040 8.801470 0.000000
vertex 7.112600 8.391130 2.000000
vertex 7.112600 8.391130 0.000000
endloop
endfacet
facet normal 0.669141 0.743136 0.000000
outer loop
vertex 7.112600 8.391130 2.000000
vertex 7.601690 7.950740 2.000000
vertex 7.112600 8.391130 0.000000
endloop
endfacet
facet normal 0.669141 0.743136 0.000000
outer loop
vertex 7.112600 8.391130 0.000000
vertex 7.601690 7.950740 2.000000
vertex 7.601690 7.950740 0.000000
endloop
endfacet
facet normal 0.712374 0.701800 0.000000
outer loop
vertex 7.601690 7.950740 2.000000
vertex 8.063570 7.481900 2.000000
vertex 7.601690 7.950740 0.000000
endloop
endfacet
facet normal 0.712375 0.701799 0.000000
outer loop
vertex 7.601690 7.950740 0.000000
vertex 8.063570 7.481900 2.000000
vertex 8.063570 7.481900 0.000000
endloop
endfacet
facet normal 0.753071 0.657939 0.000000
outer loop
vertex 8.063570 7.481900 2.000000
vertex 8.496590 6.986270 2.000000
vertex 8.063570 7.481900 0.000000
endloop
endfacet
facet normal 0.753071 0.657939 0.000000
outer loop
vertex 8.063570 7.481900 0.000000
vertex 8.496590 6.986270 2.000000
vertex 8.496590 6.986270 0.000000
endloop
endfacet
facet normal 0.791068 0.611728 0.000000
outer loop
vertex 8.496590 6.986270 2.000000
vertex 8.899190 6.465640 2.000000
vertex 8.496590 6.986270 0.000000
endloop
endfacet
facet normal 0.791067 0.611729 0.000000
outer loop
vertex 8.496590 6.986270 0.000000
vertex 8.899190 6.465640 2.000000
vertex 8.899190 6.465640 0.000000
endloop
endfacet
facet normal 0.826240 0.563318 0.000000
outer loop
vertex 8.899190 6.465640 2.000000
vertex 9.269930 5.921860 2.000000
vertex 8.899190 6.465640 0.000000
endloop
endfacet
facet normal 0.826241 0.563316 0.000000
outer loop
vertex 8.899190 6.465640 0.000000
vertex 9.269930 5.921860 2.000000
vertex 9.269930 5.921860 0.000000
endloop
endfacet
facet normal 0.858450 0.512898 0.000000
outer loop
vertex 9.269930 5.921860 2.000000
vertex 9.607490 5.356880 2.000000
vertex 9.269930 5.921860 0.000000
endloop
endfacet
facet normal 0.858448 0.512900 0.000000
outer loop
vertex 9.269930 5.921860 0.000000
vertex 9.607490 5.356880 2.000000
vertex 9.607490 5.356880 0.000000
endloop
endfacet
facet normal 0.887585 0.460644 0.000000
outer loop
vertex 9.607490 5.356880 2.000000
vertex 9.910660 4.772720 2.000000
vertex 9.607490 5.356880 0.000000
endloop
endfacet
facet normal 0.887586 0.460642 0.000000
outer loop
vertex 9.607490 5.356880 0.000000
vertex 9.910660 4.772720 2.000000
vertex 9.910660 4.772720 0.000000
endloop
endfacet
facet normal 0.913574 0.406673 0.000000
outer loop
vertex 9.910660 4.772720 2.000000
vertex 10.178300 4.171480 2.000000
vertex 9.910660 4.772720 0.000000
endloop
endfacet
facet normal 0.913573 0.406676 0.000000
outer loop
vertex 9.910660 4.772720 0.000000
vertex 10.178300 4.171480 2.000000
vertex 10.178300 4.171480 0.000000
endloop
endfacet
facet normal 0.936211 0.351438 0.000000
outer loop
vertex 10.178300 4.171480 2.000000
vertex 10.409600 3.555310 2.000000
vertex 10.178300 4.171480 0.000000
endloop
endfacet
facet normal 0.936211 0.351438 0.000000
outer loop
vertex 10.178300 4.171480 0.000000
vertex 10.409600 3.555310 2.000000
vertex 10.409600 3.555310 0.000000
endloop
endfacet
facet normal 0.955569 0.294767 0.000000
outer loop
vertex 10.409600 3.555310 2.000000
vertex 10.603600 2.926410 2.000000
vertex 10.409600 3.555310 0.000000
endloop
endfacet
facet normal 0.955568 0.294769 0.000000
outer loop
vertex 10.409600 3.555310 0.000000
vertex 10.603600 2.926410 2.000000
vertex 10.603600 2.926410 0.000000
endloop
endfacet
facet normal 0.971502 0.237033 0.000000
outer loop
vertex 10.603600 2.926410 2.000000
vertex 10.759600 2.287030 2.000000
vertex 10.603600 2.926410 0.000000
endloop
endfacet
facet normal 0.971502 0.237033 0.000000
outer loop
vertex 10.603600 2.926410 0.000000
vertex 10.759600 2.287030 2.000000
vertex 10.759600 2.287030 0.000000
endloop
endfacet
facet normal 0.983934 0.178533 0.000000
outer loop
vertex 10.759600 2.287030 2.000000
vertex 10.877100 1.639460 2.000000
vertex 10.759600 2.287030 0.000000
endloop
endfacet
facet normal 0.983934 0.178533 0.000000
outer loop
vertex 10.759600 2.287030 0.000000
vertex 10.877100 1.639460 2.000000
vertex 10.877100 1.639460 0.000000
endloop
endfacet
facet normal 0.992843 0.119428 0.000000
outer loop
vertex 10.877100 1.639460 2.000000
vertex 10.955700 0.986032 2.000000
vertex 10.877100 1.639460 0.000000
endloop
endfacet
facet normal 0.992843 0.119428 0.000000
outer loop
vertex 10.877100 1.639460 0.000000
vertex 10.955700 0.986032 2.000000
vertex 10.955700 0.986032 0.000000
endloop
endfacet
facet normal 0.998206 0.059866 0.000000
outer loop
vertex 10.955700 0.986032 2.000000
vertex 10.995100 0.329070 2.000000
vertex 10.955700 0.986032 0.000000
endloop
endfacet
facet normal 0.998206 0.059866 0.000000
outer loop
vertex 10.955700 0.986032 0.000000
vertex 10.995100 0.329070 2.000000
vertex 10.995100 0.329070 0.000000
endloop
endfacet
facet normal 0.999889 0.014889 0.000000
outer loop
vertex 10.995100 0.329070 2.000000
vertex 11.000000 0.000000 0.000000
vertex 10.995100 0.329070 0.000000
endloop
endfacet
endsolid Exported from Blender-2.77 (sub 0)
